<svg width="49" height="39" viewBox="0 0 49 39" fill="none" xmlns="http://www.w3.org/2000/svg">
<mask id="path-1-outside-1_7_5170" maskUnits="userSpaceOnUse" x="-1" y="-0.956909" width="51" height="41" fill="black">
<rect fill="white" x="-1" y="-0.956909" width="51" height="41"/>
<path d="M15.7 38.6431C12.7333 38.6431 10.1333 37.8431 7.9 36.2431C5.66667 34.6431 3.91667 32.3931 2.65 29.4931C1.41667 26.5931 0.8 23.2264 0.8 19.3931C0.8 15.5264 1.41667 12.1598 2.65 9.29309C3.88333 6.42642 5.61667 4.19309 7.85 2.59309C10.0833 0.993089 12.6833 0.193089 15.65 0.193089C18.6833 0.193089 21.3 0.993089 23.5 2.59309C25.7333 4.19309 27.4833 6.44309 28.75 9.34309C30.0167 12.2098 30.65 15.5598 30.65 19.3931C30.65 23.2264 30.0167 26.5931 28.75 29.4931C27.5167 32.3598 25.7833 34.6098 23.55 36.2431C21.3167 37.8431 18.7 38.6431 15.7 38.6431ZM15.75 32.4431C17.45 32.4431 18.9 31.9264 20.1 30.8931C21.3 29.8264 22.2167 28.3264 22.85 26.3931C23.5167 24.4264 23.85 22.0931 23.85 19.3931C23.85 16.6931 23.5167 14.3764 22.85 12.4431C22.2167 10.4764 21.2833 8.97642 20.05 7.94309C18.85 6.90976 17.3833 6.39309 15.65 6.39309C13.9833 6.39309 12.55 6.90976 11.35 7.94309C10.15 8.97642 9.21667 10.4764 8.55 12.4431C7.91667 14.3764 7.6 16.6931 7.6 19.3931C7.6 22.0598 7.91667 24.3764 8.55 26.3431C9.21667 28.2764 10.15 29.7764 11.35 30.8431C12.5833 31.9098 14.05 32.4431 15.75 32.4431ZM42.0504 38.0431V6.59309H34.8504V0.793088H48.8504V38.0431H42.0504Z"/>
</mask>
<path d="M7.9 36.2431L7.31762 37.056L7.9 36.2431ZM2.65 29.4931L1.72972 29.8845L1.7336 29.8934L2.65 29.4931ZM2.65 9.29309L1.73141 8.89788H1.73141L2.65 9.29309ZM7.85 2.59309L7.26762 1.78018L7.85 2.59309ZM23.5 2.59309L22.9118 3.40184L22.9176 3.406L23.5 2.59309ZM28.75 9.34309L27.8336 9.74336L27.8353 9.74726L28.75 9.34309ZM28.75 29.4931L27.8336 29.0928L27.8314 29.0979L28.75 29.4931ZM23.55 36.2431L24.1324 37.056L24.1403 37.0503L23.55 36.2431ZM20.1 30.8931L20.7525 31.6509L20.7585 31.6457L20.7644 31.6405L20.1 30.8931ZM22.85 26.3931L21.9029 26.072L21.8997 26.0818L22.85 26.3931ZM22.85 12.4431L21.8981 12.7496L21.9013 12.7594L21.9046 12.7691L22.85 12.4431ZM20.05 7.94309L19.3974 8.70093L19.4078 8.70961L20.05 7.94309ZM11.35 7.94309L10.6975 7.18532L10.6975 7.18532L11.35 7.94309ZM8.55 12.4431L7.60289 12.122L7.59969 12.1318L8.55 12.4431ZM8.55 26.3431L7.59814 26.6496L7.60128 26.6594L7.60463 26.6691L8.55 26.3431ZM11.35 30.8431L10.6856 31.5906L10.6958 31.5995L11.35 30.8431ZM15.7 37.6431C12.9246 37.6431 10.5321 36.8987 8.48239 35.4302L7.31762 37.056C9.73454 38.7875 12.542 39.6431 15.7 39.6431V37.6431ZM8.48239 35.4302C6.4166 33.9502 4.77207 31.8532 3.5664 29.0928L1.7336 29.8934C3.06126 32.933 4.91673 35.336 7.31762 37.056L8.48239 35.4302ZM3.57024 29.1017C2.39962 26.3492 1.8 23.1203 1.8 19.3931H-0.2C-0.2 23.3325 0.433718 26.837 1.72976 29.8845L3.57024 29.1017ZM1.8 19.3931C1.8 15.6308 2.40016 12.4041 3.56859 9.6883L1.73141 8.89788C0.43317 11.9154 -0.2 15.4221 -0.2 19.3931H1.8ZM3.56859 9.6883C4.73996 6.96565 6.36634 4.88615 8.43239 3.406L7.26762 1.78018C4.86699 3.50003 3.0267 5.8872 1.73141 8.89788L3.56859 9.6883ZM8.43239 3.406C10.4821 1.93753 12.8746 1.19309 15.65 1.19309V-0.806911C12.492 -0.806911 9.68454 0.0486488 7.26762 1.78018L8.43239 3.406ZM15.65 1.19309C18.4975 1.19309 20.9023 1.94032 22.9118 3.40182L24.0882 1.78435C21.6977 0.0458565 18.8692 -0.806911 15.65 -0.806911V1.19309ZM22.9176 3.406C24.9834 4.88596 26.6279 6.983 27.8336 9.74336L29.6664 8.94283C28.3387 5.90318 26.4833 3.50021 24.0824 1.78018L22.9176 3.406ZM27.8353 9.74726C29.0346 12.4615 29.65 15.6686 29.65 19.3931H31.65C31.65 15.4509 30.9987 11.958 29.6647 8.93893L27.8353 9.74726ZM29.65 19.3931C29.65 23.1171 29.0348 26.3428 27.8336 29.0928L29.6664 29.8934C30.9986 26.8434 31.65 23.3357 31.65 19.3931H29.65ZM27.8314 29.0979C26.6595 31.8218 25.031 33.9211 22.9597 35.4359L24.1403 37.0503C26.5357 35.2984 28.3738 32.8977 29.6686 29.8883L27.8314 29.0979ZM22.9676 35.4302C20.9198 36.8973 18.5113 37.6431 15.7 37.6431V39.6431C18.8887 39.6431 21.7135 38.7889 24.1324 37.056L22.9676 35.4302ZM15.75 33.4431C17.6705 33.4431 19.3571 32.8525 20.7525 31.6509L19.4475 30.1353C18.4429 31.0004 17.2296 31.4431 15.75 31.4431V33.4431ZM20.7644 31.6405C22.1275 30.4288 23.1264 28.7616 23.8003 26.7044L21.8997 26.0818C21.3069 27.8912 20.4725 29.224 19.4356 30.1457L20.7644 31.6405ZM23.7971 26.7141C24.5075 24.6183 24.85 22.1713 24.85 19.3931H22.85C22.85 22.0149 22.5258 24.2345 21.9029 26.0721L23.7971 26.7141ZM24.85 19.3931C24.85 16.6156 24.5077 14.1828 23.7954 12.1171L21.9046 12.7691C22.5256 14.57 22.85 16.7706 22.85 19.3931H24.85ZM23.8019 12.1366C23.1269 10.0408 22.1058 8.36096 20.6922 7.17657L19.4078 8.70961C20.4608 9.59189 21.3064 10.9121 21.8981 12.7496L23.8019 12.1366ZM20.7025 7.18532C19.3034 5.98051 17.5985 5.39309 15.65 5.39309V7.39309C17.1682 7.39309 18.3966 7.839 19.3975 8.70086L20.7025 7.18532ZM15.65 5.39309C13.7575 5.39309 12.0891 5.98702 10.6975 7.18532L12.0025 8.70086C13.0109 7.83249 14.2092 7.39309 15.65 7.39309V5.39309ZM10.6975 7.18532C9.32613 8.3662 8.30958 10.0374 7.60293 12.1221L9.49707 12.7641C10.1238 10.9154 10.9739 9.58664 12.0025 8.70086L10.6975 7.18532ZM7.59969 12.1318C6.92467 14.1924 6.6 16.6198 6.6 19.3931H8.6C8.6 16.7664 8.90866 14.5605 9.50031 12.7544L7.59969 12.1318ZM6.6 19.3931C6.6 22.1352 6.92519 24.5599 7.59814 26.6496L9.50186 26.0366C8.90814 24.1929 8.6 21.9843 8.6 19.3931H6.6ZM7.60463 26.6691C8.31224 28.7212 9.32686 30.3827 10.6856 31.5905L12.0144 30.0957C10.9731 29.1702 10.1211 27.8317 9.49537 26.0171L7.60463 26.6691ZM10.6958 31.5995C12.1192 32.8304 13.8209 33.4431 15.75 33.4431V31.4431C14.2791 31.4431 13.0475 30.9891 12.0042 30.0867L10.6958 31.5995ZM42.0504 38.0431H41.0504V39.0431H42.0504V38.0431ZM42.0504 6.59309H43.0504V5.59309H42.0504V6.59309ZM34.8504 6.59309H33.8504V7.59309H34.8504V6.59309ZM34.8504 0.793088V-0.206912H33.8504V0.793088H34.8504ZM48.8504 0.793088H49.8504V-0.206912H48.8504V0.793088ZM48.8504 38.0431V39.0431H49.8504V38.0431H48.8504ZM43.0504 38.0431V6.59309H41.0504V38.0431H43.0504ZM42.0504 5.59309H34.8504V7.59309H42.0504V5.59309ZM35.8504 6.59309V0.793088H33.8504V6.59309H35.8504ZM34.8504 1.79309H48.8504V-0.206912H34.8504V1.79309ZM47.8504 0.793088V38.0431H49.8504V0.793088H47.8504ZM48.8504 37.0431H42.0504V39.0431H48.8504V37.0431Z" fill="#2437AC" mask="url(#path-1-outside-1_7_5170)"/>
</svg>
