<svg width="60" height="60" viewBox="0 0 60 60" fill="none" xmlns="http://www.w3.org/2000/svg">
<rect x="-0.000976562" width="60" height="60" rx="30" fill="#00B8FF"/>
<path d="M43.1836 18.1641H16.8164C16.3348 18.1646 15.8732 18.3562 15.5326 18.6967C15.1921 19.0372 15.0006 19.4989 15 19.9805V41.4244C15.0001 41.5331 15.0433 41.6374 15.1202 41.7143C15.1971 41.7912 15.3014 41.8345 15.4102 41.8345H44.5898C44.6986 41.8345 44.8029 41.7912 44.8798 41.7143C44.9567 41.6374 44.9999 41.5331 45 41.4244V19.9805C44.9994 19.4989 44.8079 19.0372 44.4674 18.6967C44.1269 18.3562 43.6652 18.1646 43.1836 18.1641ZM15.8203 19.9805C15.8206 19.7164 15.9257 19.4632 16.1124 19.2765C16.2991 19.0897 16.5523 18.9847 16.8164 18.9844H43.1836C43.4477 18.9847 43.7009 19.0897 43.8876 19.2765C44.0743 19.4632 44.1794 19.7164 44.1797 19.9805V23.704H15.8203V19.9805ZM44.1797 41.0142H15.8203V24.5243H44.1797V41.0142Z" fill="white"/>
<path d="M42.7147 20.0391H24.7881C24.6793 20.0391 24.575 20.0823 24.4981 20.1592C24.4211 20.2361 24.3779 20.3404 24.3779 20.4492V22.2389C24.3779 22.3477 24.4211 22.452 24.4981 22.5289C24.575 22.6058 24.6793 22.6491 24.7881 22.6491H42.7147C42.8235 22.649 42.9278 22.6058 43.0047 22.5289C43.0816 22.452 43.1248 22.3477 43.1249 22.2389V20.4492C43.1248 20.3405 43.0816 20.2362 43.0047 20.1593C42.9278 20.0824 42.8235 20.0391 42.7147 20.0391ZM42.3046 21.8287H25.1982V20.8594H42.3046V21.8287Z" fill="white"/>
<path d="M19.1602 20.0391H17.2852C17.1764 20.0391 17.0721 20.0824 16.9952 20.1593C16.9183 20.2362 16.8751 20.3405 16.875 20.4492V22.2389C16.8751 22.3477 16.9183 22.452 16.9952 22.5289C17.0721 22.6058 17.1764 22.649 17.2852 22.6491H19.1602C19.2689 22.649 19.3732 22.6058 19.4501 22.5289C19.527 22.452 19.5703 22.3477 19.5703 22.2389V20.4492C19.5703 20.3405 19.527 20.2362 19.4501 20.1593C19.3732 20.0824 19.2689 20.0391 19.1602 20.0391ZM18.75 21.8287H17.6953V20.8594H18.75V21.8287Z" fill="white"/>
<path d="M22.9111 20.0391H21.0361C20.9274 20.0391 20.8231 20.0824 20.7462 20.1593C20.6693 20.2362 20.626 20.3405 20.626 20.4492V22.2389C20.626 22.3477 20.6693 22.452 20.7462 22.5289C20.8231 22.6058 20.9274 22.649 21.0361 22.6491H22.9111C23.0199 22.6491 23.1242 22.6058 23.2012 22.5289C23.2781 22.452 23.3213 22.3477 23.3213 22.2389V20.4492C23.3213 20.3404 23.2781 20.2361 23.2012 20.1592C23.1242 20.0823 23.0199 20.0391 22.9111 20.0391ZM22.501 21.8287H21.4463V20.8594H22.501V21.8287Z" fill="white"/>
<path d="M30.0001 39.1217C31.256 39.1218 32.4837 38.7494 33.528 38.0517C34.5722 37.354 35.3862 36.3623 35.8668 35.202C36.3475 34.0417 36.4732 32.7649 36.2283 31.5331C35.9833 30.3014 35.3785 29.1699 34.4905 28.2818C33.6024 27.3937 32.471 26.7889 31.2392 26.5439C30.0074 26.2989 28.7307 26.4246 27.5704 26.9052C26.41 27.3858 25.4183 28.1997 24.7206 29.2439C24.0228 30.2882 23.6504 31.5159 23.6504 32.7718C23.6523 34.4553 24.3218 36.0693 25.5122 37.2597C26.7026 38.4502 28.3166 39.1198 30.0001 39.1217ZM30.0001 27.2424C31.0938 27.2424 32.1629 27.5667 33.0723 28.1742C33.9816 28.7818 34.6904 29.6454 35.109 30.6558C35.5275 31.6663 35.637 32.7781 35.4237 33.8507C35.2103 34.9234 34.6837 35.9087 33.9103 36.6821C33.137 37.4554 32.1517 37.9821 31.079 38.1954C30.0064 38.4088 28.8945 38.2992 27.8841 37.8807C26.8737 37.4621 26.0101 36.7534 25.4025 35.844C24.7949 34.9346 24.4707 33.8655 24.4707 32.7718C24.4724 31.3058 25.0555 29.9004 26.0921 28.8638C27.1287 27.8272 28.5341 27.2441 30.0001 27.2424Z" fill="white"/>
<path d="M27.1441 35.9365H32.8544C32.9631 35.9364 33.0674 35.8932 33.1443 35.8163C33.2212 35.7394 33.2645 35.6351 33.2645 35.5263V31.4963C33.2645 31.3875 33.2212 31.2832 33.1443 31.2063C33.0674 31.1294 32.9631 31.0862 32.8544 31.0861H32.0809L31.8302 29.9255C31.8104 29.8337 31.7598 29.7515 31.6868 29.6926C31.6138 29.6336 31.5228 29.6015 31.4289 29.6016H28.5695C28.4758 29.6016 28.385 29.6337 28.312 29.6925C28.2391 29.7514 28.1886 29.8334 28.1687 29.925L27.918 31.0856H27.1445C27.0358 31.0857 26.9315 31.1289 26.8546 31.2058C26.7777 31.2827 26.7344 31.387 26.7344 31.4958V35.5263C26.7344 35.635 26.7776 35.7392 26.8544 35.8161C26.9312 35.893 27.0354 35.9363 27.1441 35.9365ZM27.5542 35.1162V33.6288H28.6323V33.6701C28.6323 33.7789 28.6756 33.8832 28.7525 33.9601C28.8294 34.037 28.9337 34.0802 29.0425 34.0802C29.1513 34.0802 29.2556 34.037 29.3325 33.9601C29.4094 33.8832 29.4527 33.7789 29.4527 33.6701V33.6288H30.5448V33.6701C30.5448 33.7789 30.5881 33.8832 30.665 33.9601C30.7419 34.037 30.8462 34.0802 30.955 34.0802C31.0638 34.0802 31.1681 34.037 31.245 33.9601C31.3219 33.8832 31.3652 33.7789 31.3652 33.6701V33.6288H32.4433V35.1162H27.5542ZM28.9007 30.4219H31.0975L31.2412 31.0856H28.757L28.9007 30.4219ZM31.7484 31.9059H32.4442V32.808H27.5542V31.9064L31.7484 31.9059Z" fill="white"/>
</svg>
