<svg width="68" height="69" viewBox="0 0 68 69" fill="none" xmlns="http://www.w3.org/2000/svg">
<g filter="url(#filter0_dd_7_5057)">
<rect x="4.5" y="0.539062" width="59" height="59" rx="19.5" stroke="#00B8FF"/>
<path d="M41.1581 26.0008V34.8397C41.1581 35.1711 41.02 35.4749 40.799 35.6959C40.5504 35.9445 40.2466 36.0826 39.9151 36.0826C39.2246 36.1102 38.6445 35.5302 38.6721 34.8397L38.6445 29.0115L30.1924 37.4637C29.6952 37.9609 28.9218 37.9609 28.4246 37.4637C27.9551 36.9941 27.9274 36.1931 28.4246 35.6959L36.8768 27.2438H31.0763C30.3857 27.2714 29.8057 26.6914 29.8333 26.0008C29.8057 25.3103 30.3857 24.7302 31.0763 24.7579H39.9151C40.6056 24.7302 41.1857 25.3103 41.1581 26.0008Z" fill="#00B8FF"/>
</g>
<defs>
<filter id="filter0_dd_7_5057" x="0" y="0.0390625" width="68" height="68" filterUnits="userSpaceOnUse" color-interpolation-filters="sRGB">
<feFlood flood-opacity="0" result="BackgroundImageFix"/>
<feColorMatrix in="SourceAlpha" type="matrix" values="0 0 0 0 0 0 0 0 0 0 0 0 0 0 0 0 0 0 127 0" result="hardAlpha"/>
<feOffset dy="4"/>
<feGaussianBlur stdDeviation="2"/>
<feComposite in2="hardAlpha" operator="out"/>
<feColorMatrix type="matrix" values="0 0 0 0 0 0 0 0 0 0 0 0 0 0 0 0 0 0 0.25 0"/>
<feBlend mode="normal" in2="BackgroundImageFix" result="effect1_dropShadow_7_5057"/>
<feColorMatrix in="SourceAlpha" type="matrix" values="0 0 0 0 0 0 0 0 0 0 0 0 0 0 0 0 0 0 127 0" result="hardAlpha"/>
<feOffset dy="4"/>
<feGaussianBlur stdDeviation="2"/>
<feComposite in2="hardAlpha" operator="out"/>
<feColorMatrix type="matrix" values="0 0 0 0 0 0 0 0 0 0 0 0 0 0 0 0 0 0 0.25 0"/>
<feBlend mode="normal" in2="effect1_dropShadow_7_5057" result="effect2_dropShadow_7_5057"/>
<feBlend mode="normal" in="SourceGraphic" in2="effect2_dropShadow_7_5057" result="shape"/>
</filter>
</defs>
</svg>
