<svg width="60" height="61" viewBox="0 0 60 61" fill="none" xmlns="http://www.w3.org/2000/svg">
<rect y="0.0429688" width="60" height="60" rx="20" fill="#00B8FF"/>
<path d="M37.1581 26.0047V34.8436C37.1581 35.175 37.02 35.4789 36.799 35.6998C36.5504 35.9484 36.2466 36.0865 35.9151 36.0865C35.2246 36.1141 34.6445 35.5341 34.6721 34.8436L34.6445 29.0155L26.1924 37.4676C25.6952 37.9648 24.9218 37.9648 24.4246 37.4676C23.9551 36.998 23.9274 36.197 24.4246 35.6998L32.8768 27.2477H27.0763C26.3857 27.2753 25.8057 26.6953 25.8333 26.0047C25.8057 25.3142 26.3857 24.7341 27.0763 24.7618H35.9151C36.6056 24.7341 37.1857 25.3142 37.1581 26.0047Z" fill="white"/>
</svg>
