<svg width="60" height="61" viewBox="0 0 60 61" fill="none" xmlns="http://www.w3.org/2000/svg">
<path d="M30 60.043C46.5685 60.043 60 46.6115 60 30.043C60 13.4744 46.5685 0.0429688 30 0.0429688C13.4315 0.0429688 0 13.4744 0 30.043C0 46.6115 13.4315 60.043 30 60.043Z" fill="#00B8FF"/>
<path d="M36.6875 30.7617L31.6875 35.7617C31.5 35.9492 31.25 36.043 31 36.043C30.7188 36.043 30.4688 35.9492 30.2812 35.7617C29.875 35.3867 29.875 34.7305 30.2812 34.3555L33.5625 31.043H24C23.4375 31.043 23 30.6055 23 30.043C23 29.5117 23.4375 29.043 24 29.043H33.5625L30.2812 25.7617C29.875 25.3867 29.875 24.7305 30.2812 24.3555C30.6562 23.9492 31.3125 23.9492 31.6875 24.3555L36.6875 29.3555C37.0938 29.7305 37.0938 30.3867 36.6875 30.7617Z" fill="white"/>
</svg>
