<svg width="190" height="161" viewBox="0 0 190 161" fill="none" xmlns="http://www.w3.org/2000/svg">
<g filter="url(#filter0_d_7_4989)">
<path d="M109.5 74.0391C109.5 90.3315 96.2924 103.539 80 103.539C63.7076 103.539 50.5 90.3315 50.5 74.0391C50.5 57.7467 63.7076 44.5391 80 44.5391C96.2924 44.5391 109.5 57.7467 109.5 74.0391Z" stroke="#E3DBD8"/>
</g>
<path d="M86.9688 74.0391C86.9688 74.6016 86.5312 75.0391 86 75.0391H76.4062L79.6875 78.3516C80.0938 78.7266 80.0938 79.3828 79.6875 79.7578C79.5 79.9453 79.25 80.0391 79 80.0391C78.7188 80.0391 78.4688 79.9453 78.2812 79.7578L73.2812 74.7578C72.875 74.3828 72.875 73.7266 73.2812 73.3516L78.2812 68.3516C78.6562 67.9453 79.3125 67.9453 79.6875 68.3516C80.0938 68.7266 80.0938 69.3828 79.6875 69.7578L76.4062 73.0391H86C86.5312 73.0391 86.9688 73.5078 86.9688 74.0391Z" fill="white"/>
<path d="M160 104.039C176.569 104.039 190 90.6076 190 74.0391C190 57.4705 176.569 44.0391 160 44.0391C143.431 44.0391 130 57.4705 130 74.0391C130 90.6076 143.431 104.039 160 104.039Z" fill="#00B8FF"/>
<path d="M166.688 74.7578L161.688 79.7578C161.5 79.9453 161.25 80.0391 161 80.0391C160.719 80.0391 160.469 79.9453 160.282 79.7578C159.875 79.3828 159.875 78.7266 160.282 78.3516L163.563 75.0391H154C153.438 75.0391 153 74.6016 153 74.0391C153 73.5078 153.438 73.0391 154 73.0391H163.563L160.282 69.7578C159.875 69.3828 159.875 68.7266 160.282 68.3516C160.657 67.9453 161.313 67.9453 161.688 68.3516L166.688 73.3516C167.094 73.7266 167.094 74.3828 166.688 74.7578Z" fill="white"/>
<defs>
<filter id="filter0_d_7_4989" x="0" y="0.0390625" width="160" height="160" filterUnits="userSpaceOnUse" color-interpolation-filters="sRGB">
<feFlood flood-opacity="0" result="BackgroundImageFix"/>
<feColorMatrix in="SourceAlpha" type="matrix" values="0 0 0 0 0 0 0 0 0 0 0 0 0 0 0 0 0 0 127 0" result="hardAlpha"/>
<feOffset dy="6"/>
<feGaussianBlur stdDeviation="25"/>
<feColorMatrix type="matrix" values="0 0 0 0 0.145098 0 0 0 0 0.145098 0 0 0 0 0.145098 0 0 0 0.051 0"/>
<feBlend mode="normal" in2="BackgroundImageFix" result="effect1_dropShadow_7_4989"/>
<feBlend mode="normal" in="SourceGraphic" in2="effect1_dropShadow_7_4989" result="shape"/>
</filter>
</defs>
</svg>
