<svg width="55" height="56" viewBox="0 0 55 56" fill="none" xmlns="http://www.w3.org/2000/svg">
<rect x="23" y="0.0390625" width="32" height="32" rx="16" fill="#F1F5EB"/>
<g clip-path="url(#clip0_7_5014)">
<path d="M22.5 17.8281C19.1213 17.8319 15.8821 19.1757 13.493 21.5648C11.1039 23.9538 9.75986 27.1929 9.75586 30.5716C9.75586 41.7136 21.7406 47.1516 22.2507 47.3763C22.3292 47.411 22.4141 47.429 22.5 47.429C22.5859 47.429 22.6708 47.411 22.7493 47.3763C23.2594 47.1502 35.2441 41.7122 35.2441 30.5716C35.2401 27.1929 33.8961 23.9538 31.507 21.5648C29.1179 19.1757 25.8787 17.8319 22.5 17.8281ZM22.5 46.1345C20.7967 45.2996 10.9863 40.0715 10.9863 30.5716C10.9863 27.5179 12.1994 24.5894 14.3586 22.4302C16.5178 20.2709 19.4464 19.0579 22.5 19.0579C25.5536 19.0579 28.4822 20.2709 30.6414 22.4302C32.8006 24.5894 34.0137 27.5179 34.0137 30.5716C34.0137 40.0585 24.2016 45.2982 22.5 46.1345Z" fill="#2437AC"/>
<path d="M22.4998 21.1172C20.6298 21.1172 18.8018 21.6717 17.2469 22.7107C15.692 23.7496 14.4802 25.2263 13.7646 26.954C13.049 28.6817 12.8618 30.5828 13.2267 32.4169C13.5915 34.251 14.4921 35.9357 15.8145 37.258C17.1368 38.5803 18.8216 39.4807 20.6557 39.8454C22.4898 40.2102 24.3909 40.0229 26.1186 39.3071C27.8462 38.5914 29.3228 37.3794 30.3617 35.8245C31.4005 34.2695 31.9549 32.4414 31.9548 30.5714C31.9517 28.0648 30.9546 25.6618 29.1821 23.8894C27.4096 22.117 25.0064 21.1201 22.4998 21.1172ZM17.7098 37.2511V36.4966C17.7104 35.6342 18.0531 34.8072 18.6628 34.1973C19.2725 33.5873 20.0993 33.2442 20.9618 33.2433H24.0379C24.9001 33.2442 25.7267 33.5871 26.3364 34.1968C26.946 34.8064 27.289 35.6331 27.2899 36.4952V37.2511C25.8947 38.2557 24.2191 38.7962 22.4998 38.7962C20.7806 38.7962 19.105 38.2557 17.7098 37.2511ZM28.5045 36.1838C28.4249 35.0532 27.9201 33.9948 27.0918 33.2213C26.2635 32.4477 25.173 32.0165 24.0397 32.0142H20.9635C19.8302 32.0165 18.7397 32.4477 17.9114 33.2213C17.0831 33.9948 16.5784 35.0532 16.4987 36.1838C15.403 35.013 14.6734 33.5476 14.3996 31.9676C14.1259 30.3877 14.32 28.7622 14.958 27.2911C15.5961 25.82 16.6502 24.5675 17.9908 23.6877C19.3314 22.8079 20.8999 22.3392 22.5034 22.3392C24.1069 22.3392 25.6754 22.8079 27.0159 23.6877C28.3565 24.5675 29.4107 25.82 30.0487 27.2911C30.6867 28.7622 30.8808 30.3877 30.6071 31.9676C30.3334 33.5476 29.6038 35.013 28.5081 36.1838H28.5045Z" fill="#2437AC"/>
<path d="M0.379688 21.7145C0.492081 21.7611 0.615779 21.7733 0.735123 21.7496C0.854467 21.7259 0.964091 21.6673 1.05012 21.5812L4.61883 18.0129L9.51645 22.9105C9.63187 23.0259 9.78843 23.0908 9.95168 23.0908C9.97329 23.0909 9.99489 23.0897 10.0164 23.0873C10.1076 23.0778 10.1955 23.0479 10.2736 22.9999C10.3517 22.9519 10.4181 22.887 10.4678 22.8099C11.0838 21.8593 11.8093 20.9844 12.6295 20.2031C12.689 20.1465 12.7365 20.0786 12.7692 20.0033C12.802 19.9281 12.8194 19.847 12.8204 19.765C12.8214 19.6829 12.8059 19.6015 12.775 19.5255C12.744 19.4495 12.6981 19.3804 12.6401 19.3224L7.97484 14.6568L11.5432 11.0881C11.6289 11.0022 11.6873 10.8927 11.7109 10.7737C11.7346 10.6546 11.7224 10.5312 11.676 10.419C11.6296 10.3068 11.5511 10.2108 11.4502 10.1432C11.3494 10.0756 11.2308 10.0394 11.1094 10.0391H0.615234C0.452247 10.0391 0.295919 10.1037 0.18057 10.2189C0.0652219 10.334 0.000279408 10.4903 0 10.6532L0 21.1463C-3.44277e-07 21.268 0.0360738 21.3869 0.103659 21.488C0.171244 21.5891 0.267304 21.6679 0.379688 21.7145ZM1.23047 11.2695H9.62297L6.66985 14.2227C6.61267 14.2798 6.56731 14.3476 6.53636 14.4222C6.50541 14.4969 6.48948 14.5769 6.48948 14.6577C6.48948 14.7385 6.50541 14.8185 6.53636 14.8932C6.56731 14.9678 6.61267 15.0357 6.66985 15.0928L11.3333 19.7559C10.8006 20.3059 10.3089 20.8941 9.86203 21.5158L5.05371 16.7079C4.9966 16.6507 4.92879 16.6053 4.85414 16.5744C4.77948 16.5434 4.69947 16.5275 4.61865 16.5275C4.53784 16.5275 4.45782 16.5434 4.38317 16.5744C4.30852 16.6053 4.2407 16.6507 4.18359 16.7079L1.23047 19.661V11.2695Z" fill="#2437AC"/>
<path d="M11.7454 40.9305C11.6925 40.8598 11.6251 40.8014 11.5477 40.759C11.4703 40.7167 11.3847 40.6915 11.2967 40.6852C11.2087 40.6788 11.1204 40.6915 11.0377 40.7223C10.9551 40.7531 10.88 40.8013 10.8176 40.8637L4.61883 47.0628L1.05012 43.4941C0.964077 43.4081 0.85448 43.3496 0.735177 43.3259C0.615874 43.3022 0.492218 43.3143 0.379837 43.3609C0.267455 43.4074 0.171391 43.4862 0.103784 43.5873C0.0361774 43.6885 6.16089e-05 43.8074 9.041e-07 43.929V54.4221C-0.000137752 54.503 0.0156734 54.5831 0.0465298 54.6578C0.0773861 54.7326 0.122682 54.8006 0.179826 54.8578C0.236969 54.915 0.304839 54.9605 0.379551 54.9914C0.454264 55.0224 0.534353 55.0384 0.615235 55.0384H11.1094C11.2311 55.0385 11.3501 55.0025 11.4513 54.9349C11.5525 54.8673 11.6314 54.7712 11.678 54.6588C11.7246 54.5463 11.7367 54.4226 11.7129 54.3032C11.6891 54.1838 11.6304 54.0742 11.5443 53.9883L7.9759 50.4195L14.0087 44.386C14.0661 44.3286 14.1115 44.2605 14.1424 44.1854C14.1733 44.1104 14.1891 44.03 14.1888 43.9489C14.1885 43.8678 14.1721 43.7875 14.1407 43.7127C14.1092 43.6379 14.0633 43.5701 14.0055 43.5131C13.1886 42.71 12.433 41.8467 11.7454 40.9305ZM6.66984 49.9836C6.61268 50.0407 6.56732 50.1085 6.53638 50.1831C6.50544 50.2577 6.48951 50.3377 6.48951 50.4185C6.48951 50.4993 6.50544 50.5793 6.53638 50.6539C6.56732 50.7285 6.61268 50.7963 6.66984 50.8534L9.62297 53.8065H1.23047V45.4147L4.18359 48.3678C4.2407 48.425 4.30852 48.4704 4.38317 48.5013C4.45782 48.5323 4.53784 48.5482 4.61865 48.5482C4.69946 48.5482 4.77948 48.5323 4.85414 48.5013C4.92879 48.4704 4.9966 48.425 5.05371 48.3678L11.1934 42.2281C11.6617 42.8149 12.1676 43.3901 12.7051 43.9473L6.66984 49.9836Z" fill="#2437AC"/>
<path d="M44.6206 43.3608C44.5082 43.3142 44.3845 43.3019 44.2652 43.3257C44.1458 43.3494 44.0362 43.408 43.9502 43.494L40.3815 47.0627L34.1824 40.8636C34.1198 40.8015 34.0447 40.7534 33.962 40.7226C33.8794 40.6918 33.7912 40.679 33.7032 40.685C33.6152 40.6914 33.5296 40.7167 33.4522 40.7592C33.3748 40.8016 33.3076 40.8603 33.2549 40.9311C32.5672 41.8467 31.8117 42.7094 30.9947 43.512C30.937 43.5689 30.891 43.6368 30.8596 43.7116C30.8282 43.7863 30.8118 43.8666 30.8115 43.9478C30.8112 44.0289 30.827 44.1093 30.8579 44.1843C30.8888 44.2593 30.9342 44.3275 30.9916 44.3849L37.0254 50.4191L33.4571 53.9871C33.3706 54.073 33.3116 54.1826 33.2876 54.302C33.2635 54.4214 33.2755 54.5453 33.322 54.658C33.3685 54.7706 33.4474 54.8669 33.5487 54.9346C33.65 55.0023 33.7691 55.0384 33.8909 55.0383H44.3851C44.5482 55.0383 44.7047 54.9735 44.8201 54.8581C44.9355 54.7427 45.0003 54.5862 45.0003 54.423V43.9289C45.0002 43.8073 44.9641 43.6884 44.8966 43.5873C44.829 43.4862 44.733 43.4073 44.6206 43.3608ZM43.7698 53.8078H35.3773L38.3304 50.8547C38.3876 50.7976 38.433 50.7298 38.4639 50.6552C38.4949 50.5806 38.5108 50.5006 38.5108 50.4198C38.5108 50.339 38.4949 50.259 38.4639 50.1844C38.433 50.1098 38.3876 50.042 38.3304 49.9849L32.2945 43.9472C32.8327 43.39 33.3386 42.8148 33.8062 42.228L39.9459 48.3674C40.003 48.4246 40.0708 48.4699 40.1455 48.5009C40.2201 48.5318 40.3001 48.5477 40.3809 48.5477C40.4617 48.5477 40.5418 48.5318 40.6164 48.5009C40.6911 48.4699 40.7589 48.4246 40.816 48.3674L43.7691 45.4143L43.7698 53.8078Z" fill="#2437AC"/>
<path d="M44.3849 10.0391H33.8907C33.769 10.039 33.65 10.075 33.5488 10.1426C33.4476 10.2101 33.3687 10.3062 33.3221 10.4187C33.2755 10.5311 33.2634 10.6549 33.2872 10.7742C33.311 10.8936 33.3697 11.0032 33.4559 11.0892L37.0242 14.6579L32.36 19.3224C32.302 19.3804 32.2561 19.4495 32.2252 19.5255C32.1942 19.6015 32.1787 19.6829 32.1797 19.765C32.1807 19.847 32.1981 19.9281 32.2309 20.0033C32.2637 20.0786 32.3112 20.1465 32.3706 20.2031C33.1907 20.9845 33.9162 21.8594 34.5323 22.8099C34.5821 22.887 34.6484 22.9519 34.7265 22.9999C34.8047 23.0479 34.8926 23.0778 34.9837 23.0873C35.0052 23.0897 35.0268 23.0909 35.0484 23.0908C35.2117 23.0908 35.3682 23.0259 35.4837 22.9105L40.3813 18.0129L43.95 21.5812C44.036 21.6672 44.1456 21.7257 44.2649 21.7494C44.3842 21.7732 44.5079 21.761 44.6203 21.7144C44.7327 21.6679 44.8287 21.5891 44.8963 21.488C44.9639 21.3869 45.0001 21.268 45.0001 21.1463V10.6532C44.9998 10.4903 44.9349 10.334 44.8195 10.2189C44.7042 10.1037 44.5479 10.0391 44.3849 10.0391ZM43.7696 19.661L40.8165 16.7079C40.7594 16.6507 40.6916 16.6053 40.6169 16.5744C40.5423 16.5434 40.4623 16.5275 40.3815 16.5275C40.3007 16.5275 40.2206 16.5434 40.146 16.5744C40.0713 16.6053 40.0035 16.6507 39.9464 16.7079L35.1381 21.5158C34.6913 20.8941 34.1995 20.3059 33.6668 19.7559L38.3303 15.0921C38.3874 15.035 38.4328 14.9671 38.4638 14.8925C38.4947 14.8178 38.5106 14.7378 38.5106 14.657C38.5106 14.5762 38.4947 14.4962 38.4638 14.4215C38.4328 14.3469 38.3874 14.2791 38.3303 14.222L35.3771 11.2688H43.7696V19.661Z" fill="#2437AC"/>
<path d="M22.5 24.103C21.8095 24.0645 21.1234 24.2341 20.5303 24.5899C19.9373 24.9456 19.4646 25.4711 19.1735 26.0984C18.8825 26.7257 18.7863 27.426 18.8975 28.1085C19.0088 28.7911 19.3222 29.4246 19.7974 29.927C20.2726 30.4294 20.8877 30.7777 21.563 30.9268C22.2383 31.0758 22.9428 31.0188 23.5853 30.7631C24.2278 30.5074 24.7789 30.0647 25.1671 29.4924C25.5553 28.9201 25.7628 28.2445 25.7629 27.5529C25.7859 26.6632 25.4555 25.8006 24.844 25.154C24.2324 24.5074 23.3896 24.1295 22.5 24.103ZM22.5 29.772C22.0528 29.8114 21.6041 29.7147 21.2127 29.4947C20.8213 29.2746 20.5056 28.9415 20.3068 28.5389C20.1081 28.1363 20.0356 27.6831 20.0989 27.2386C20.1622 26.7941 20.3584 26.3791 20.6616 26.048C20.9649 25.7169 21.3611 25.4852 21.7983 25.3831C22.2355 25.2811 22.6934 25.3136 23.1118 25.4763C23.5303 25.639 23.8898 25.9243 24.1433 26.2948C24.3968 26.6654 24.5324 27.1039 24.5324 27.5529C24.5553 28.1161 24.3544 28.6655 23.9736 29.0812C23.5928 29.4968 23.0631 29.7449 22.5 29.7713V29.772Z" fill="#2437AC"/>
</g>
<defs>
<clipPath id="clip0_7_5014">
<rect width="45" height="45" fill="white" transform="translate(0 10.0391)"/>
</clipPath>
</defs>
</svg>
