<svg width="55" height="56" viewBox="0 0 55 56" fill="none" xmlns="http://www.w3.org/2000/svg">
<rect x="23" y="0.0390625" width="32" height="32" rx="16" fill="#F1F5EB"/>
<g clip-path="url(#clip0_7_5063)">
<path d="M41.7113 22.7838C41.7114 20.9136 41.1569 19.0855 40.118 17.5306C39.079 15.9756 37.6023 14.7636 35.8746 14.0479C34.1469 13.3322 32.2457 13.145 30.4115 13.5098C28.5773 13.8746 26.8925 14.7751 25.5702 16.0975C24.2478 17.4199 23.3473 19.1047 22.9824 20.9389C22.6176 22.773 22.8049 24.6742 23.5206 26.4019C24.2363 28.1297 25.4482 29.6064 27.0032 30.6453C28.5582 31.6843 30.3863 32.2387 32.2564 32.2387C34.7632 32.2359 37.1664 31.2388 38.939 29.4663C40.7115 27.6938 41.7085 25.2905 41.7113 22.7838ZM24.0316 22.7838C24.0315 21.157 24.5139 19.5668 25.4176 18.2142C26.3213 16.8616 27.6058 15.8073 29.1087 15.1848C30.6116 14.5622 32.2653 14.3993 33.8608 14.7166C35.4563 15.0339 36.9218 15.8172 38.0721 16.9675C39.2224 18.1177 40.0058 19.5832 40.3232 21.1787C40.6405 22.7742 40.4777 24.4279 39.8552 25.9308C39.2327 27.4337 38.1785 28.7183 36.8259 29.6221C35.4733 30.5258 33.8831 31.0082 32.2564 31.0082C30.0759 31.0057 27.9854 30.1384 26.4435 28.5966C24.9016 27.0547 24.0342 24.9643 24.0316 22.7838Z" fill="#2437AC"/>
<path d="M36.9148 41.7254H15.6892V39.6417H32.2566C32.3414 39.6414 32.4252 39.6235 32.5027 39.5889H32.5048C33.016 39.3632 45.0007 33.9253 45.0007 22.7832C45.0007 19.4032 43.658 16.1617 41.268 13.7717C38.8781 11.3817 35.6365 10.0391 32.2566 10.0391C28.8766 10.0391 25.6351 11.3817 23.2451 13.7717C20.8551 16.1617 19.5124 19.4032 19.5124 22.7832C19.5124 28.5745 22.7503 32.8214 25.9316 35.5987H15.4255C14.4235 35.5998 13.4629 35.9984 12.7544 36.7069C12.0459 37.4154 11.6473 38.376 11.6462 39.378V41.988C11.6473 42.99 12.0459 43.9506 12.7544 44.6591C13.4629 45.3677 14.4235 45.7662 15.4255 45.7673H36.6511V47.5895H10.4597C9.99011 46.4195 9.12783 45.4495 8.02093 44.846C6.91403 44.2425 5.63156 44.0433 4.39373 44.2824C3.15591 44.5215 2.03995 45.1842 1.23748 46.1565C0.435011 47.1288 -0.00390625 48.3502 -0.00390625 49.6109C-0.00390625 50.8717 0.435011 52.093 1.23748 53.0654C2.03995 54.0377 3.15591 54.7003 4.39373 54.9395C5.63156 55.1786 6.91403 54.9794 8.02093 54.3759C9.12783 53.7724 9.99011 52.8024 10.4597 51.6324H36.9148C37.9168 51.6313 38.8774 51.2328 39.5859 50.5243C40.2944 49.8157 40.693 48.8551 40.6941 47.8531V45.5036C40.6927 44.5018 40.294 43.5415 39.5855 42.8332C38.8771 42.1249 37.9166 41.7265 36.9148 41.7254ZM20.7429 22.7832C20.7429 19.7296 21.9559 16.801 24.1152 14.6418C26.2744 12.4826 29.203 11.2695 32.2566 11.2695C35.3102 11.2695 38.2387 12.4826 40.398 14.6418C42.5572 16.801 43.7702 19.7296 43.7702 22.7832C43.7702 32.2694 33.9581 37.5091 32.2562 38.3458C30.5533 37.5105 20.7429 32.2828 20.7429 22.7832ZM5.42779 53.8097C4.59774 53.8097 3.78633 53.5635 3.09616 53.1024C2.40599 52.6413 1.86805 51.9858 1.55037 51.219C1.2327 50.4521 1.14954 49.6083 1.31142 48.7942C1.47331 47.9801 1.87296 47.2322 2.45984 46.6453C3.04673 46.0583 3.79449 45.6585 4.60857 45.4965C5.42265 45.3345 6.2665 45.4175 7.0334 45.735C7.80031 46.0526 8.45583 46.5904 8.91708 47.2805C9.37833 47.9706 9.6246 48.7819 9.62474 49.612C9.62372 50.7248 9.18123 51.7918 8.39439 52.5788C7.60755 53.3658 6.54064 53.8084 5.42779 53.8097ZM39.4636 47.8542C39.4629 48.5299 39.1941 49.1778 38.7163 49.6557C38.2384 50.1335 37.5905 50.4023 36.9148 50.403H10.7909C10.8767 49.8792 10.8767 49.3448 10.7909 48.821H36.9148C37.1711 48.8207 37.4169 48.7188 37.5981 48.5375C37.7794 48.3563 37.8813 48.1105 37.8816 47.8542V45.5047C37.8814 45.2483 37.7795 45.0025 37.5982 44.8213C37.4169 44.64 37.1711 44.5381 36.9148 44.5379H15.4255C14.7498 44.5371 14.1019 44.2684 13.6241 43.7905C13.1462 43.3127 12.8774 42.6648 12.8767 41.9891V39.3791C12.8774 38.7033 13.1462 38.0554 13.6241 37.5776C14.1019 37.0998 14.7498 36.831 15.4255 36.8302H27.4521C28.2085 37.3968 28.993 37.9248 29.8027 38.4123H15.4255C15.1692 38.4125 14.9234 38.5144 14.7421 38.6956C14.5608 38.8769 14.4589 39.1227 14.4587 39.3791V41.9891C14.459 42.2454 14.561 42.4911 14.7422 42.6724C14.9234 42.8536 15.1692 42.9556 15.4255 42.9559H36.9148C37.5905 42.9566 38.2384 43.2254 38.7163 43.7032C39.1941 44.1811 39.4629 44.8289 39.4636 45.5047V47.8542Z" fill="#2437AC"/>
</g>
<defs>
<clipPath id="clip0_7_5063">
<rect width="45" height="45" fill="white" transform="translate(0 10.0391)"/>
</clipPath>
</defs>
</svg>
