<svg width="55" height="56" viewBox="0 0 55 56" fill="none" xmlns="http://www.w3.org/2000/svg">
<rect x="13" y="0.0390625" width="42" height="42" rx="20" fill="#F1F5EB"/>
<g clip-path="url(#clip0_7_5047)">
<path d="M37.3238 37.1065C37.3614 36.628 37.3864 36.1523 37.3864 35.6914V17.6854C37.3864 17.5641 37.3505 17.4455 37.2833 17.3446C37.216 17.2436 37.1204 17.1648 37.0085 17.118L20.1996 10.0868C20.1243 10.0553 20.0436 10.0391 19.9621 10.0391C19.8805 10.0391 19.7998 10.0553 19.7246 10.0868L2.91604 17.118C2.8041 17.1648 2.70848 17.2436 2.64123 17.3446C2.57398 17.4455 2.5381 17.5641 2.53811 17.6854V35.6914C2.5323 39.2803 3.59066 42.7903 5.57939 45.7777C7.56813 48.7652 10.3979 51.0959 13.7111 52.4754L19.7253 54.9911C19.8005 55.0227 19.8812 55.0389 19.9628 55.0389C20.0443 55.0389 20.1251 55.0227 20.2003 54.9911L26.2148 52.4754C26.3076 52.4367 26.398 52.3941 26.4897 52.3537C27.4706 53.2895 28.6414 54.0034 29.9225 54.4467C31.2037 54.8901 32.5653 55.0526 33.9148 54.9233C35.2643 54.794 36.5702 54.3758 37.7438 53.6971C38.9175 53.0185 39.9313 52.0953 40.7166 50.9902C41.5019 49.8851 42.0403 48.6239 42.2951 47.2924C42.5499 45.9609 42.5153 44.5901 42.1935 43.2731C41.8717 41.9561 41.2704 40.7238 40.4303 39.6598C39.5901 38.5958 38.5309 37.7249 37.3245 37.1065H37.3238ZM19.9623 53.7568L14.1854 51.3405C11.0964 50.0542 8.45812 47.881 6.604 45.0955C4.74988 42.3101 3.76317 39.0375 3.76858 35.6914V18.095L19.9623 11.3211L36.1559 18.095V35.6914C36.1559 35.986 36.1461 36.2891 36.1292 36.5914C35.397 36.3344 34.6359 36.1691 33.863 36.0992C33.8673 35.9607 33.8708 35.824 33.8708 35.6907V20.0258C33.8708 19.9044 33.8349 19.7858 33.7676 19.6848C33.7004 19.5838 33.6048 19.5049 33.4928 19.458L20.1996 13.8977C20.1243 13.8662 20.0436 13.85 19.9621 13.85C19.8805 13.85 19.7998 13.8662 19.7246 13.8977L6.43131 19.458C6.31946 19.505 6.22396 19.5839 6.15679 19.6849C6.08962 19.7859 6.05377 19.9045 6.05374 20.0258V35.6914C6.04904 38.5867 6.90282 41.4184 8.50713 43.8286C10.1114 46.2387 12.3943 48.1192 15.0671 49.2322L19.7246 51.1802C19.7998 51.2118 19.8805 51.228 19.9621 51.228C20.0436 51.228 20.1244 51.2118 20.1996 51.1802L24.4014 49.4224C24.7225 50.1265 25.1288 50.7885 25.6112 51.3936L19.9623 53.7568ZM23.5524 45.5144C23.5519 46.449 23.6906 47.3784 23.9637 48.2721L19.9623 49.9459L15.5421 48.097C13.0932 47.0774 11.0017 45.3546 9.53183 43.1465C8.06198 40.9384 7.27981 38.344 7.2842 35.6914V20.4354L19.9623 15.132L32.6403 20.4354V35.6932C32.6403 35.8159 32.6371 35.9424 32.6333 36.0708C30.1938 36.1698 27.887 37.2076 26.1948 38.9675C24.5026 40.7273 23.5558 43.073 23.5524 45.5144ZM28.2173 52.1941V51.439C28.2182 50.5768 28.5611 49.7502 29.1708 49.1405C29.7805 48.5308 30.6071 48.1879 31.4692 48.187H34.5454C35.4076 48.1879 36.2342 48.5308 36.8439 49.1405C37.4535 49.7502 37.7964 50.5768 37.7974 51.439V52.1938C36.4022 53.1984 34.7265 53.7389 33.0073 53.7389C31.2881 53.7389 29.6124 53.1987 28.2173 52.1941ZM39.012 51.1264C38.9323 49.9959 38.4275 48.9375 37.5992 48.164C36.7709 47.3905 35.6805 46.9592 34.5472 46.9569H31.471C30.3377 46.9591 29.2472 47.3904 28.4189 48.1639C27.5906 48.9374 27.0858 49.9959 27.0062 51.1264C25.9104 49.9557 25.1808 48.4902 24.9071 46.9103C24.6334 45.3303 24.8275 43.7048 25.4655 42.2338C26.1036 40.7627 27.1577 39.5102 28.4983 38.6304C29.8389 37.7506 31.4074 37.2819 33.0109 37.2819C34.6143 37.2819 36.1828 37.7506 37.5234 38.6304C38.864 39.5102 39.9181 40.7627 40.5562 42.2338C41.1942 43.7048 41.3883 45.3303 41.1146 46.9103C40.8409 48.4902 40.1113 49.9557 39.0155 51.1264H39.012Z" fill="#2437AC"/>
<path d="M33.0068 39.0444C32.3164 39.0059 31.6302 39.1755 31.0372 39.5313C30.4441 39.887 29.9715 40.4125 29.6804 41.0398C29.3893 41.6672 29.2931 42.3674 29.4044 43.0499C29.5156 43.7325 29.8291 44.366 30.3043 44.8684C30.7795 45.3708 31.3945 45.7191 32.0698 45.8682C32.7451 46.0172 33.4496 45.9602 34.0921 45.7045C34.7347 45.4488 35.2857 45.0061 35.6739 44.4338C36.0621 43.8615 36.2697 43.1859 36.2697 42.4943C36.2928 41.6046 35.9624 40.742 35.3508 40.0954C34.7393 39.4488 33.8964 39.0709 33.0068 39.0444ZM33.0068 44.7134C32.5596 44.7528 32.1109 44.6561 31.7195 44.4361C31.3282 44.216 31.0124 43.8829 30.8137 43.4803C30.6149 43.0777 30.5425 42.6245 30.6058 42.18C30.6691 41.7355 30.8652 41.3205 31.1685 40.9894C31.4717 40.6583 31.8679 40.4266 32.3051 40.3245C32.7424 40.2225 33.2002 40.255 33.6187 40.4177C34.0371 40.5804 34.3967 40.8657 34.6502 41.2363C34.9036 41.6068 35.0393 42.0453 35.0392 42.4943C35.0626 43.0579 34.862 43.6078 34.4811 44.0238C34.1003 44.4399 33.5703 44.6883 33.0068 44.7148V44.7134Z" fill="#2437AC"/>
<path d="M19.9622 19.9844C18.4212 19.9844 16.9149 20.4413 15.6336 21.2975C14.3523 22.1536 13.3537 23.3704 12.764 24.7941C12.1743 26.2178 12.02 27.7843 12.3206 29.2957C12.6212 30.8071 13.3633 32.1954 14.4529 33.285C15.5426 34.3746 16.9308 35.1167 18.4422 35.4173C19.9536 35.718 21.5202 35.5637 22.9438 34.9739C24.3675 34.3842 25.5844 33.3856 26.4405 32.1043C27.2966 30.8231 27.7536 29.3167 27.7536 27.7757C27.7512 25.71 26.9296 23.7296 25.469 22.269C24.0083 20.8083 22.0279 19.9867 19.9622 19.9844ZM25.8892 30.5699H23.9131C24.0566 29.8513 24.1427 29.1225 24.1704 28.3902H26.4907C26.4191 29.1464 26.2155 29.8841 25.8892 30.5699ZM14.0352 24.9801H16.011C15.8678 25.6987 15.7818 26.4275 15.7537 27.1598H13.4334C13.5051 26.4036 13.7088 25.6659 14.0352 24.9801ZM20.5775 23.7496V21.3836C21.2187 21.7183 21.8396 22.5525 22.2868 23.7503L20.5775 23.7496ZM22.6517 24.9801C22.8119 25.6967 22.9078 26.4261 22.9382 27.1598H20.5775V24.9801H22.6517ZM19.347 21.3829V23.7496H17.6377C18.0849 22.5543 18.7057 21.7183 19.347 21.3836V21.3829ZM19.347 24.9801V27.1598H16.9863C17.0165 26.4261 17.1124 25.6966 17.2728 24.9801H19.347ZM13.4327 28.3902H15.753C15.7811 29.1225 15.8671 29.8513 16.0103 30.5699H14.0345C13.7081 29.8841 13.5044 29.1464 13.4327 28.3902ZM16.9863 28.3902H19.347V30.5699H17.2728C17.1124 29.8534 17.0165 29.1239 16.9863 28.3902ZM19.347 31.8004V34.1671C18.7057 33.8328 18.0849 32.9982 17.6373 31.8004H19.347ZM20.5775 34.1671V31.8004H22.2868C21.8396 32.9985 21.2187 33.8328 20.5775 34.1671ZM20.5775 30.5699V28.3902H22.9382C22.9078 29.1239 22.8119 29.8533 22.6517 30.5699H20.5775ZM24.1704 27.1598C24.1425 26.4275 24.0565 25.6987 23.9131 24.9801H25.8892C26.2159 25.6658 26.4199 26.4036 26.4918 27.1598H24.1704ZM25.1316 23.7496H23.5949C23.3846 23.0747 23.0893 22.4293 22.716 21.829C23.662 22.2689 24.4899 22.9271 25.1316 23.7496ZM17.2067 21.8297C16.8341 22.4299 16.5393 23.0751 16.3295 23.7496H14.7929C15.4342 22.9277 16.2615 22.2697 17.2067 21.8297ZM14.7925 31.8004H16.3295C16.5393 32.4752 16.834 33.1206 17.2067 33.721C16.2613 33.2808 15.4339 32.6226 14.7925 31.8004ZM22.7174 33.7213C23.0907 33.1209 23.386 32.4754 23.5963 31.8004H25.1334C24.4915 32.623 23.6634 33.2811 22.7174 33.7213Z" fill="#2437AC"/>
</g>
<defs>
<clipPath id="clip0_7_5047">
<rect width="45" height="45" fill="white" transform="translate(0 10.0391)"/>
</clipPath>
</defs>
</svg>
