<svg width="20" height="21" viewBox="0 0 20 21" fill="none" xmlns="http://www.w3.org/2000/svg">
<g clip-path="url(#clip0_7_5152)">
<path d="M19.3 2.67367C19.2618 2.5939 19.1936 2.5325 19.1103 2.50292L12.1959 0.0620132C12.0224 0.000638358 11.832 0.0918048 11.7706 0.265304L10.2 4.70963H9.51302V3.5763C9.513 3.42322 9.47783 3.2722 9.41023 3.13486C9.34263 2.99752 9.2444 2.87753 9.12311 2.78415C9.00182 2.69076 8.86071 2.62647 8.71066 2.59623C8.5606 2.56599 8.4056 2.5706 8.25761 2.60972L0.248416 4.72071V4.72671C0.177823 4.74445 0.115123 4.78514 0.0701599 4.84238C0.0251971 4.89962 0.000518721 4.97017 0 5.04296L0 19.0429C0 19.5952 0.447749 20.0429 0.999998 20.0429H10.3333C10.8856 20.0429 11.3333 19.5952 11.3333 19.0429V16.0184L14.0066 16.9621C14.1803 17.0232 14.3707 16.9323 14.4319 16.7586L19.3143 2.92838C19.3287 2.88707 19.3349 2.84331 19.3325 2.7996C19.33 2.75589 19.319 2.7131 19.2999 2.67367H19.3ZM8.42769 3.25255C8.47703 3.23955 8.52869 3.23803 8.57871 3.2481C8.62873 3.25818 8.67577 3.27958 8.71623 3.31067C8.7567 3.34184 8.78947 3.38187 8.81202 3.4277C8.83456 3.47353 8.84628 3.52393 8.84627 3.57501V4.70963H2.90366L8.42769 3.25255ZM10.6666 19.0429C10.6666 19.1313 10.6315 19.2161 10.569 19.2786C10.5065 19.3411 10.4217 19.3763 10.3333 19.3763H0.999998C0.911593 19.3763 0.826808 19.3411 0.764296 19.2786C0.701784 19.2161 0.666665 19.1313 0.666665 19.0429V5.37629H10.3333C10.4217 5.37629 10.5065 5.41141 10.569 5.47392C10.6315 5.53644 10.6666 5.62122 10.6666 5.70963V19.0429ZM13.4067 6.64533L13.8333 6.44304L14.0366 6.86833L12.417 11.4519C12.3877 11.5353 12.3926 11.6269 12.4306 11.7067L12.7776 12.4326L12.6704 12.7369L12.0093 12.0524C11.9734 12.015 11.9294 11.9865 11.8806 11.9691C11.8318 11.9517 11.7797 11.946 11.7283 11.9523L11.3333 12.0023V11.5556L11.6176 11.4196C11.6974 11.3815 11.7588 11.3133 11.7884 11.23L12.4551 9.3447L13.4067 6.64533ZM14.0353 8.87024L14.7121 9.95766L14.5963 10.2853L13.7866 9.57633L14.0353 8.87024ZM11.3333 10.5159V9.59991L11.6613 9.58624L11.3333 10.5159ZM11.9001 8.90933L11.3333 8.93262V8.48891L12.1494 8.20425L11.9001 8.90933ZM13.9141 16.2223L11.3333 15.3113V12.6742L11.6456 12.6352L12.5667 13.588C12.598 13.6199 12.6353 13.6451 12.6765 13.6623C12.7177 13.6794 12.762 13.6882 12.8066 13.6879C12.8304 13.6881 12.8541 13.6855 12.8773 13.6803C12.9328 13.6682 12.9843 13.6422 13.0268 13.6046C13.0694 13.567 13.1017 13.5192 13.1206 13.4656L13.4539 12.5226C13.4834 12.4392 13.4785 12.3476 13.4402 12.268L13.0916 11.5429L13.5477 10.2513L14.527 11.1097C14.5878 11.163 14.6659 11.1924 14.7468 11.1924C14.7752 11.1924 14.8036 11.1886 14.8311 11.1813C14.8837 11.1675 14.9322 11.141 14.9723 11.1042C15.0124 11.0674 15.0429 11.0213 15.0611 10.97L15.3944 10.027C15.411 9.97987 15.4168 9.92961 15.4114 9.87993C15.406 9.83025 15.3894 9.78244 15.363 9.74003L14.3196 8.06395L14.7103 6.95771C14.7249 6.91638 14.7312 6.87257 14.7289 6.8288C14.7265 6.78503 14.7156 6.74216 14.6966 6.70262L14.2901 5.85238C14.2712 5.81286 14.2447 5.77745 14.2121 5.74817C14.1796 5.71889 14.1416 5.69631 14.1003 5.68172C14.059 5.66713 14.0152 5.66082 13.9715 5.66315C13.9277 5.66548 13.8849 5.6764 13.8454 5.69529L12.9946 6.10204C12.9552 6.1209 12.9199 6.14736 12.8906 6.17989C12.8614 6.21242 12.8389 6.25039 12.8244 6.29163L12.4333 7.39925L11.3333 7.78295V5.70963C11.3329 5.53904 11.2888 5.37141 11.2051 5.22277C11.1214 5.07413 11.0009 4.94945 10.8553 4.86067L11.4001 3.31592L11.5223 2.96938L12.2891 0.80272L18.5753 3.02163L13.9141 16.2223Z" fill="#2437AC"/>
<path d="M16.5439 5.1332L16.7657 4.50445L17.3374 4.70611L17.1155 5.33486L16.5439 5.1332ZM11.972 3.51907L12.194 2.89053L12.7654 3.09232L12.5434 3.72091L11.972 3.51907ZM15.4008 4.7297L15.6228 4.10095L16.1943 4.30278L15.9723 4.93136L15.4008 4.7297ZM13.115 3.92274L13.337 3.29416L13.9083 3.49599L13.6863 4.12457L13.115 3.92274ZM14.2579 4.32591L14.48 3.69732L15.0514 3.89916L14.8294 4.5277L14.2579 4.32591ZM5.51301 6.71082C3.67202 6.71082 2.17969 8.20315 2.17969 10.0441C2.17969 11.8851 3.67202 13.3775 5.51301 13.3775C7.35401 13.3775 8.84634 11.8851 8.84634 10.0441C8.84438 8.20415 7.35318 6.7129 5.51301 6.71082ZM7.92005 8.90448L7.4653 8.80456C7.2653 8.76044 7.06522 8.72548 6.86322 8.69519C6.83297 8.49341 6.79646 8.29262 6.75372 8.09311L6.65359 7.63852C7.20852 7.90267 7.65568 8.34966 7.92005 8.90448ZM2.84631 10.0441C2.84698 9.90789 2.85806 9.77185 2.87969 9.63723L3.70393 9.45381C3.83039 9.42581 3.95768 9.40256 4.08527 9.38056C4.05304 9.82242 4.05304 10.266 4.08527 10.7079C3.95764 10.6859 3.83039 10.6625 3.70393 10.6345L2.87969 10.4512C2.85809 10.3166 2.84695 10.1805 2.84635 10.0441H2.84631ZM4.76172 9.29319C5.26137 9.24859 5.76399 9.24859 6.26364 9.29319C6.30839 9.79282 6.30839 10.2955 6.26364 10.7951C5.76399 10.8399 5.26133 10.8399 4.76168 10.7951C4.71693 10.2955 4.71697 9.79282 4.76172 9.29319ZM6.93926 9.38056C7.06701 9.40256 7.1943 9.42581 7.32059 9.45381L8.14497 9.63723C8.19119 9.90659 8.19119 10.1819 8.14497 10.4512L7.32059 10.6345C7.19434 10.6625 7.06701 10.6859 6.93926 10.7082C6.97165 10.2663 6.97165 9.82252 6.93926 9.38056ZM5.91972 7.41086L6.10301 8.23556C6.13101 8.36186 6.1546 8.48915 6.17676 8.6169C5.73474 8.58451 5.29095 8.58451 4.84893 8.6169C4.87106 8.48915 4.89435 8.36186 4.92268 8.23556L5.10593 7.41086C5.37527 7.36512 5.65039 7.36512 5.91972 7.41086ZM4.37306 7.63611L4.27293 8.09086C4.22898 8.29086 4.19397 8.49094 4.16373 8.69294C3.96195 8.72307 3.76116 8.75948 3.56164 8.8021L3.10689 8.90223C3.37146 8.3479 3.81845 7.9013 4.37302 7.63723L4.37306 7.63611ZM3.10623 11.1828L3.56098 11.2829C3.76098 11.3268 3.96085 11.3618 4.16306 11.3921C4.19319 11.5939 4.2296 11.7947 4.27222 11.9942L4.37235 12.4488C3.8175 12.1849 3.37024 11.7382 3.10556 11.1838L3.10623 11.1828ZM5.10622 12.6755L4.92293 11.8508C4.8946 11.7248 4.87135 11.5972 4.84918 11.4698C5.06993 11.4859 5.2916 11.4968 5.51326 11.4968C5.73493 11.4968 5.95597 11.4859 6.17701 11.4698C6.15489 11.5972 6.13126 11.7248 6.10326 11.8508L5.92001 12.6755C5.65068 12.7212 5.37556 12.7212 5.10622 12.6755ZM6.65289 12.4502L6.75301 11.9955C6.7973 11.7955 6.83197 11.5956 6.86259 11.3934C7.06434 11.3632 7.2651 11.3268 7.46459 11.2842L7.91918 11.1841C7.65505 11.7394 7.20779 12.1868 6.65259 12.4512L6.65289 12.4502ZM2.84635 16.0441H8.17967V16.7108H2.84635V16.0441ZM3.51302 17.3775H7.51301V18.0441H3.51302V17.3775ZM5.17968 14.7108H5.84635V15.3775H5.17968V14.7108ZM3.84635 14.7108H4.51302V15.3775H3.84635V14.7108ZM6.51301 14.7108H7.17968V15.3775H6.51301V14.7108Z" fill="#2437AC"/>
</g>
<defs>
<clipPath id="clip0_7_5152">
<rect width="20" height="20" fill="white" transform="translate(0 0.0429688)"/>
</clipPath>
</defs>
</svg>
