<svg width="60" height="60" viewBox="0 0 60 60" fill="none" xmlns="http://www.w3.org/2000/svg">
<rect x="-0.000976562" width="60" height="60" rx="30" fill="#00B8FF"/>
<g clip-path="url(#clip0_7_5711)">
<path d="M44.5898 38.939H42.041V25.8103C42.0411 25.7396 42.023 25.6701 41.9883 25.6085C41.9537 25.5469 41.9037 25.4953 41.8432 25.4587L30.2123 18.4225C30.1483 18.3838 30.0749 18.3633 30 18.3633C29.9251 18.3633 29.8517 18.3838 29.7877 18.4225L18.1568 25.4594C18.0963 25.496 18.0463 25.5476 18.0117 25.6092C17.977 25.6708 17.9589 25.7403 17.959 25.811V38.9397H15.4102C15.3563 38.9397 15.3029 38.9503 15.2531 38.971C15.2033 38.9916 15.1581 39.0219 15.12 39.06C15.0819 39.0982 15.0517 39.1434 15.0311 39.1932C15.0105 39.2431 14.9999 39.2964 15 39.3503V41.2253C15 41.3341 15.0432 41.4384 15.1201 41.5154C15.1971 41.5923 15.3014 41.6355 15.4102 41.6355H44.5898C44.6986 41.6355 44.8029 41.5923 44.8799 41.5154C44.9568 41.4384 45 41.3341 45 41.2253V39.3503C45.0002 39.2964 44.9897 39.2429 44.9691 39.193C44.9486 39.1431 44.9184 39.0978 44.8803 39.0596C44.8422 39.0213 44.7969 38.991 44.7471 38.9703C44.6972 38.9497 44.6438 38.939 44.5898 38.939ZM18.7793 34.78H26.0156V36.6295H18.7793V34.78ZM26.8359 30.475C26.8365 29.9624 27.0404 29.4709 27.4029 29.1084C27.7654 28.7459 28.2569 28.542 28.7695 28.5414H29.5898V32.7283C29.5893 33.8399 29.342 34.9375 28.8657 35.942C28.3895 36.9464 27.6962 37.8326 26.8359 38.5366V30.475ZM41.2207 36.6299H33.9844V34.78H41.2207V36.6299ZM33.1641 38.5366C32.3037 37.8326 31.6104 36.9465 31.1342 35.942C30.658 34.9376 30.4107 33.8399 30.4102 32.7283V28.5414H31.2305C31.7431 28.542 32.2346 28.7459 32.5971 29.1084C32.9596 29.4709 33.1635 29.9624 33.1641 30.475V38.5366ZM27.7402 38.8364C28.7797 37.8747 29.5574 36.6643 30 35.3191C30.4601 36.7117 31.2761 37.9599 32.3672 38.94H27.6328C27.6696 38.905 27.7031 38.8701 27.7402 38.8364ZM33.9844 37.4503H41.2207V38.939H33.9844V37.4503ZM30 19.2527L41.2207 26.0416V33.9597H33.9844V30.475C33.9835 29.7449 33.6931 29.045 33.1768 28.5287C32.6605 28.0124 31.9606 27.722 31.2305 27.7211H28.7695C28.0394 27.7219 27.3394 28.0123 26.8231 28.5286C26.3068 29.0449 26.0164 29.7449 26.0156 30.475V33.9597H18.7793V26.0416L30 19.2527ZM18.7793 37.4503H26.0156V38.939H18.7793V37.4503ZM44.1797 40.814H15.8203V39.7593H44.1797V40.814Z" fill="white"/>
<path d="M22.3971 32.5192C22.786 32.5193 23.1663 32.404 23.4897 32.1879C23.8132 31.9718 24.0653 31.6647 24.2142 31.3053C24.3631 30.946 24.402 30.5506 24.3262 30.1691C24.2503 29.7875 24.063 29.4371 23.788 29.162C23.513 28.887 23.1626 28.6996 22.7811 28.6237C22.3996 28.5478 22.0041 28.5868 21.6448 28.7356C21.2854 28.8845 20.9782 29.1365 20.7621 29.4599C20.546 29.7834 20.4307 30.1636 20.4307 30.5526C20.4312 31.074 20.6386 31.5738 21.0072 31.9425C21.3759 32.3112 21.8757 32.5186 22.3971 32.5192ZM22.3971 29.4063C22.6238 29.4062 22.8455 29.4734 23.034 29.5993C23.2225 29.7253 23.3695 29.9043 23.4563 30.1137C23.5431 30.3232 23.5658 30.5537 23.5216 30.7761C23.4774 30.9985 23.3683 31.2027 23.208 31.3631C23.0477 31.5234 22.8434 31.6326 22.621 31.6769C22.3987 31.7211 22.1682 31.6984 21.9587 31.6117C21.7492 31.5249 21.5702 31.378 21.4442 31.1895C21.3182 31.001 21.251 30.7793 21.251 30.5526C21.2515 30.2488 21.3725 29.9576 21.5873 29.7427C21.8021 29.5279 22.0933 29.4069 22.3971 29.4063Z" fill="white"/>
<path d="M30.0001 26.4333C30.3891 26.4333 30.7693 26.3179 31.0928 26.1018C31.4162 25.8857 31.6683 25.5785 31.8171 25.2191C31.9659 24.8597 32.0048 24.4642 31.9289 24.0827C31.8529 23.7012 31.6656 23.3508 31.3905 23.0758C31.1154 22.8008 30.7649 22.6135 30.3833 22.5377C30.0018 22.4619 29.6063 22.5009 29.247 22.6499C28.8877 22.7989 28.5806 23.051 28.3645 23.3745C28.1485 23.6981 28.0333 24.0784 28.0334 24.4673C28.0342 24.9886 28.2417 25.4884 28.6103 25.8569C28.979 26.2254 29.4788 26.4327 30.0001 26.4333ZM30.0001 23.3203C30.2268 23.3203 30.4484 23.3875 30.6369 23.5135C30.8254 23.6394 30.9723 23.8184 31.0591 24.0278C31.1459 24.2372 31.1686 24.4677 31.1244 24.69C31.0803 24.9124 30.9712 25.1166 30.8109 25.277C30.6507 25.4373 30.4465 25.5465 30.2242 25.5909C30.0018 25.6352 29.7714 25.6126 29.5619 25.5259C29.3524 25.4393 29.1733 25.2924 29.0473 25.104C28.9212 24.9156 28.8539 24.694 28.8538 24.4673C28.8541 24.1634 28.975 23.8719 29.1899 23.6569C29.4048 23.4419 29.6961 23.3209 30.0001 23.3203Z" fill="white"/>
<path d="M37.6021 32.5192C37.9911 32.5193 38.3714 32.404 38.6948 32.1879C39.0183 31.9718 39.2704 31.6647 39.4193 31.3053C39.5681 30.946 39.6071 30.5506 39.5313 30.1691C39.4554 29.7875 39.2681 29.4371 38.9931 29.162C38.7181 28.887 38.3676 28.6996 37.9861 28.6237C37.6046 28.5478 37.2092 28.5868 36.8498 28.7356C36.4905 28.8845 36.1833 29.1365 35.9672 29.4599C35.7511 29.7834 35.6357 30.1636 35.6357 30.5526C35.6363 31.074 35.8436 31.5738 36.2123 31.9425C36.5809 32.3112 37.0808 32.5186 37.6021 32.5192ZM37.6021 29.4063C37.8289 29.4062 38.0505 29.4734 38.2391 29.5993C38.4276 29.7253 38.5746 29.9043 38.6614 30.1137C38.7482 30.3232 38.7709 30.5537 38.7267 30.7761C38.6825 30.9985 38.5734 31.2027 38.413 31.3631C38.2527 31.5234 38.0485 31.6326 37.8261 31.6769C37.6037 31.7211 37.3732 31.6984 37.1638 31.6117C36.9543 31.5249 36.7752 31.378 36.6493 31.1895C36.5233 31.001 36.4561 30.7793 36.4561 30.5526C36.4566 30.2488 36.5775 29.9576 36.7923 29.7427C37.0071 29.5279 37.2983 29.4069 37.6021 29.4063Z" fill="white"/>
</g>
<defs>
<clipPath id="clip0_7_5711">
<rect width="30" height="30" fill="white" transform="translate(15 15)"/>
</clipPath>
</defs>
</svg>
