<svg width="160" height="161" viewBox="0 0 160 161" fill="none" xmlns="http://www.w3.org/2000/svg">
<g filter="url(#filter0_d_7_4990)">
<path d="M109.5 74.0391C109.5 90.3315 96.2924 103.539 80 103.539C63.7076 103.539 50.5 90.3315 50.5 74.0391C50.5 57.7467 63.7076 44.5391 80 44.5391C96.2924 44.5391 109.5 57.7467 109.5 74.0391Z" stroke="#E3DBD8"/>
</g>
<path d="M86.9688 74.0391C86.9688 74.6016 86.5312 75.0391 86 75.0391H76.4062L79.6875 78.3516C80.0938 78.7266 80.0938 79.3828 79.6875 79.7578C79.5 79.9453 79.25 80.0391 79 80.0391C78.7188 80.0391 78.4688 79.9453 78.2812 79.7578L73.2812 74.7578C72.875 74.3828 72.875 73.7266 73.2812 73.3516L78.2812 68.3516C78.6562 67.9453 79.3125 67.9453 79.6875 68.3516C80.0938 68.7266 80.0938 69.3828 79.6875 69.7578L76.4062 73.0391H86C86.5312 73.0391 86.9688 73.5078 86.9688 74.0391Z" fill="white"/>
<defs>
<filter id="filter0_d_7_4990" x="0" y="0.0390625" width="160" height="160" filterUnits="userSpaceOnUse" color-interpolation-filters="sRGB">
<feFlood flood-opacity="0" result="BackgroundImageFix"/>
<feColorMatrix in="SourceAlpha" type="matrix" values="0 0 0 0 0 0 0 0 0 0 0 0 0 0 0 0 0 0 127 0" result="hardAlpha"/>
<feOffset dy="6"/>
<feGaussianBlur stdDeviation="25"/>
<feColorMatrix type="matrix" values="0 0 0 0 0.145098 0 0 0 0 0.145098 0 0 0 0 0.145098 0 0 0 0.051 0"/>
<feBlend mode="normal" in2="BackgroundImageFix" result="effect1_dropShadow_7_4990"/>
<feBlend mode="normal" in="SourceGraphic" in2="effect1_dropShadow_7_4990" result="shape"/>
</filter>
</defs>
</svg>
