<svg width="62" height="39" viewBox="0 0 62 39" fill="none" xmlns="http://www.w3.org/2000/svg">
<mask id="path-1-outside-1_7_5160" maskUnits="userSpaceOnUse" x="-1" y="-0.956909" width="64" height="41" fill="black">
<rect fill="white" x="-1" y="-0.956909" width="64" height="41"/>
<path d="M15.7 38.6431C12.7333 38.6431 10.1333 37.8431 7.9 36.2431C5.66667 34.6431 3.91667 32.3931 2.65 29.4931C1.41667 26.5931 0.8 23.2264 0.8 19.3931C0.8 15.5264 1.41667 12.1598 2.65 9.29309C3.88333 6.42642 5.61667 4.19309 7.85 2.59309C10.0833 0.993089 12.6833 0.193089 15.65 0.193089C18.6833 0.193089 21.3 0.993089 23.5 2.59309C25.7333 4.19309 27.4833 6.44309 28.75 9.34309C30.0167 12.2098 30.65 15.5598 30.65 19.3931C30.65 23.2264 30.0167 26.5931 28.75 29.4931C27.5167 32.3598 25.7833 34.6098 23.55 36.2431C21.3167 37.8431 18.7 38.6431 15.7 38.6431ZM15.75 32.4431C17.45 32.4431 18.9 31.9264 20.1 30.8931C21.3 29.8264 22.2167 28.3264 22.85 26.3931C23.5167 24.4264 23.85 22.0931 23.85 19.3931C23.85 16.6931 23.5167 14.3764 22.85 12.4431C22.2167 10.4764 21.2833 8.97642 20.05 7.94309C18.85 6.90976 17.3833 6.39309 15.65 6.39309C13.9833 6.39309 12.55 6.90976 11.35 7.94309C10.15 8.97642 9.21667 10.4764 8.55 12.4431C7.91667 14.3764 7.6 16.6931 7.6 19.3931C7.6 22.0598 7.91667 24.3764 8.55 26.3431C9.21667 28.2764 10.15 29.7764 11.35 30.8431C12.5833 31.9098 14.05 32.4431 15.75 32.4431ZM48.0504 38.6431C46.0171 38.6431 44.0837 38.2764 42.2504 37.5431C40.4504 36.7764 38.9004 35.7098 37.6004 34.3431C36.3337 32.9431 35.4671 31.2931 35.0004 29.3931L40.9504 27.2931C41.5504 28.9931 42.4671 30.2931 43.7004 31.1931C44.9337 32.0598 46.3837 32.4931 48.0504 32.4931C49.3837 32.4931 50.5337 32.2431 51.5004 31.7431C52.5004 31.2431 53.2837 30.5264 53.8504 29.5931C54.4171 28.6264 54.7004 27.4931 54.7004 26.1931C54.7004 24.8931 54.4171 23.7931 53.8504 22.8931C53.3171 21.9598 52.5504 21.2431 51.5504 20.7431C50.5504 20.2431 49.3671 19.9931 48.0004 19.9931C47.3671 19.9931 46.7004 20.0598 46.0004 20.1931C45.3337 20.3264 44.7337 20.5264 44.2004 20.7931L42.6504 17.5431L52.3004 6.54309H37.1004V0.793088H59.9504V6.14309L50.2504 17.4931L50.3504 14.9431C52.5837 14.9764 54.5337 15.4598 56.2004 16.3931C57.8671 17.3264 59.1671 18.6098 60.1004 20.2431C61.0337 21.8764 61.5004 23.7931 61.5004 25.9931C61.5004 28.3931 60.9171 30.5598 59.7504 32.4931C58.5837 34.3931 56.9837 35.8931 54.9504 36.9931C52.9171 38.0931 50.6171 38.6431 48.0504 38.6431Z"/>
</mask>
<path d="M7.9 36.2431L7.31762 37.056L7.9 36.2431ZM2.65 29.4931L1.72972 29.8845L1.7336 29.8934L2.65 29.4931ZM2.65 9.29309L1.73141 8.89788H1.73141L2.65 9.29309ZM7.85 2.59309L7.26762 1.78018L7.85 2.59309ZM23.5 2.59309L22.9118 3.40184L22.9176 3.406L23.5 2.59309ZM28.75 9.34309L27.8336 9.74336L27.8353 9.74726L28.75 9.34309ZM28.75 29.4931L27.8336 29.0928L27.8314 29.0979L28.75 29.4931ZM23.55 36.2431L24.1324 37.056L24.1403 37.0503L23.55 36.2431ZM20.1 30.8931L20.7525 31.6509L20.7585 31.6457L20.7644 31.6405L20.1 30.8931ZM22.85 26.3931L21.9029 26.072L21.8997 26.0818L22.85 26.3931ZM22.85 12.4431L21.8981 12.7496L21.9013 12.7594L21.9046 12.7691L22.85 12.4431ZM20.05 7.94309L19.3974 8.70093L19.4078 8.70961L20.05 7.94309ZM11.35 7.94309L10.6975 7.18532L10.6975 7.18532L11.35 7.94309ZM8.55 12.4431L7.60289 12.122L7.59969 12.1318L8.55 12.4431ZM8.55 26.3431L7.59814 26.6496L7.60128 26.6594L7.60463 26.6691L8.55 26.3431ZM11.35 30.8431L10.6856 31.5906L10.6958 31.5995L11.35 30.8431ZM15.7 37.6431C12.9246 37.6431 10.5321 36.8987 8.48239 35.4302L7.31762 37.056C9.73454 38.7875 12.542 39.6431 15.7 39.6431V37.6431ZM8.48239 35.4302C6.4166 33.9502 4.77207 31.8532 3.5664 29.0928L1.7336 29.8934C3.06126 32.933 4.91673 35.336 7.31762 37.056L8.48239 35.4302ZM3.57024 29.1017C2.39962 26.3492 1.8 23.1203 1.8 19.3931H-0.2C-0.2 23.3325 0.433718 26.837 1.72976 29.8845L3.57024 29.1017ZM1.8 19.3931C1.8 15.6308 2.40016 12.4041 3.56859 9.6883L1.73141 8.89788C0.43317 11.9154 -0.2 15.4221 -0.2 19.3931H1.8ZM3.56859 9.6883C4.73996 6.96565 6.36634 4.88615 8.43239 3.406L7.26762 1.78018C4.86699 3.50003 3.0267 5.8872 1.73141 8.89788L3.56859 9.6883ZM8.43239 3.406C10.4821 1.93753 12.8746 1.19309 15.65 1.19309V-0.806911C12.492 -0.806911 9.68454 0.0486488 7.26762 1.78018L8.43239 3.406ZM15.65 1.19309C18.4975 1.19309 20.9023 1.94032 22.9118 3.40182L24.0882 1.78435C21.6977 0.0458565 18.8692 -0.806911 15.65 -0.806911V1.19309ZM22.9176 3.406C24.9834 4.88596 26.6279 6.983 27.8336 9.74336L29.6664 8.94283C28.3387 5.90318 26.4833 3.50021 24.0824 1.78018L22.9176 3.406ZM27.8353 9.74726C29.0346 12.4615 29.65 15.6686 29.65 19.3931H31.65C31.65 15.4509 30.9987 11.958 29.6647 8.93893L27.8353 9.74726ZM29.65 19.3931C29.65 23.1171 29.0348 26.3428 27.8336 29.0928L29.6664 29.8934C30.9986 26.8434 31.65 23.3357 31.65 19.3931H29.65ZM27.8314 29.0979C26.6595 31.8218 25.031 33.9211 22.9597 35.4359L24.1403 37.0503C26.5357 35.2984 28.3738 32.8977 29.6686 29.8883L27.8314 29.0979ZM22.9676 35.4302C20.9198 36.8973 18.5113 37.6431 15.7 37.6431V39.6431C18.8887 39.6431 21.7135 38.7889 24.1324 37.056L22.9676 35.4302ZM15.75 33.4431C17.6705 33.4431 19.3571 32.8525 20.7525 31.6509L19.4475 30.1353C18.4429 31.0004 17.2296 31.4431 15.75 31.4431V33.4431ZM20.7644 31.6405C22.1275 30.4288 23.1264 28.7616 23.8003 26.7044L21.8997 26.0818C21.3069 27.8912 20.4725 29.224 19.4356 30.1457L20.7644 31.6405ZM23.7971 26.7141C24.5075 24.6183 24.85 22.1713 24.85 19.3931H22.85C22.85 22.0149 22.5258 24.2345 21.9029 26.0721L23.7971 26.7141ZM24.85 19.3931C24.85 16.6156 24.5077 14.1828 23.7954 12.1171L21.9046 12.7691C22.5256 14.57 22.85 16.7706 22.85 19.3931H24.85ZM23.8019 12.1366C23.1269 10.0408 22.1058 8.36096 20.6922 7.17657L19.4078 8.70961C20.4608 9.59189 21.3064 10.9121 21.8981 12.7496L23.8019 12.1366ZM20.7025 7.18532C19.3034 5.98051 17.5985 5.39309 15.65 5.39309V7.39309C17.1682 7.39309 18.3966 7.839 19.3975 8.70086L20.7025 7.18532ZM15.65 5.39309C13.7575 5.39309 12.0891 5.98702 10.6975 7.18532L12.0025 8.70086C13.0109 7.83249 14.2092 7.39309 15.65 7.39309V5.39309ZM10.6975 7.18532C9.32613 8.3662 8.30958 10.0374 7.60293 12.1221L9.49707 12.7641C10.1238 10.9154 10.9739 9.58664 12.0025 8.70086L10.6975 7.18532ZM7.59969 12.1318C6.92467 14.1924 6.6 16.6198 6.6 19.3931H8.6C8.6 16.7664 8.90866 14.5605 9.50031 12.7544L7.59969 12.1318ZM6.6 19.3931C6.6 22.1352 6.92519 24.5599 7.59814 26.6496L9.50186 26.0366C8.90814 24.1929 8.6 21.9843 8.6 19.3931H6.6ZM7.60463 26.6691C8.31224 28.7212 9.32686 30.3827 10.6856 31.5905L12.0144 30.0957C10.9731 29.1702 10.1211 27.8317 9.49537 26.0171L7.60463 26.6691ZM10.6958 31.5995C12.1192 32.8304 13.8209 33.4431 15.75 33.4431V31.4431C14.2791 31.4431 13.0475 30.9891 12.0042 30.0867L10.6958 31.5995ZM42.2504 37.5431L41.8585 38.4631L41.8687 38.4675L41.879 38.4716L42.2504 37.5431ZM37.6004 34.3431L36.8589 35.014L36.8672 35.0233L36.8758 35.0323L37.6004 34.3431ZM35.0004 29.3931L34.6676 28.4501L33.8131 28.7517L34.0293 29.6316L35.0004 29.3931ZM40.9504 27.2931L41.8934 26.9603L41.5606 26.0173L40.6176 26.3501L40.9504 27.2931ZM43.7004 31.1931L43.1109 32.0009L43.1181 32.0061L43.1254 32.0113L43.7004 31.1931ZM51.5004 31.7431L51.0531 30.8486L51.041 30.8549L51.5004 31.7431ZM53.8504 29.5931L54.7052 30.1121L54.7092 30.1055L54.7131 30.0988L53.8504 29.5931ZM53.8504 22.8931L52.9821 23.3892L52.9928 23.4078L53.0042 23.4259L53.8504 22.8931ZM51.5504 20.7431L51.1032 21.6375L51.5504 20.7431ZM46.0004 20.1931L45.8133 19.2107L45.8043 19.2125L46.0004 20.1931ZM44.2004 20.7931L43.2978 21.2236L43.7364 22.1431L44.6476 21.6875L44.2004 20.7931ZM42.6504 17.5431L41.8987 16.8836L41.4642 17.3789L41.7478 17.9736L42.6504 17.5431ZM52.3004 6.54309L53.0521 7.20256L54.5079 5.54309H52.3004V6.54309ZM37.1004 6.54309H36.1004V7.54309H37.1004V6.54309ZM37.1004 0.793088V-0.206912H36.1004V0.793088H37.1004ZM59.9504 0.793088H60.9504V-0.206912H59.9504V0.793088ZM59.9504 6.14309L60.7106 6.79278L60.9504 6.51219V6.14309H59.9504ZM50.2504 17.4931L49.2512 17.4539L49.1382 20.3336L51.0106 18.1428L50.2504 17.4931ZM50.3504 14.9431L50.3653 13.9432L49.3894 13.9286L49.3512 14.9039L50.3504 14.9431ZM60.1004 20.2431L59.2322 20.7392L60.1004 20.2431ZM59.7504 32.4931L60.6026 33.0164L60.6066 33.0098L59.7504 32.4931ZM54.9504 36.9931L55.4262 37.8726H55.4262L54.9504 36.9931ZM48.0504 37.6431C46.1404 37.6431 44.3335 37.2993 42.6218 36.6146L41.879 38.4716C43.834 39.2536 45.8937 39.6431 48.0504 39.6431V37.6431ZM42.6423 36.6231C40.963 35.9078 39.5274 34.918 38.3249 33.6539L36.8758 35.0323C38.2733 36.5015 39.9378 37.645 41.8585 38.4631L42.6423 36.6231ZM38.3419 33.6722C37.1906 32.3996 36.4002 30.8997 35.9715 29.1546L34.0293 29.6316C34.534 31.6865 35.4769 33.4866 36.8589 35.014L38.3419 33.6722ZM35.3332 30.3361L41.2832 28.2361L40.6176 26.3501L34.6676 28.4501L35.3332 30.3361ZM40.0074 27.6259C40.6622 29.4811 41.6867 30.9616 43.1109 32.0009L44.2899 30.3853C43.2474 29.6246 42.4386 28.5051 41.8934 26.9603L40.0074 27.6259ZM43.1254 32.0113C44.5449 33.0087 46.2007 33.4931 48.0504 33.4931V31.4931C46.5668 31.4931 45.3226 31.1108 44.2753 30.3749L43.1254 32.0113ZM48.0504 33.4931C49.5081 33.4931 50.8227 33.2195 51.9598 32.6313L51.041 30.8549C50.2448 31.2667 49.2593 31.4931 48.0504 31.4931V33.4931ZM51.9476 32.6375C53.1119 32.0554 54.0383 31.2105 54.7052 30.1121L52.9956 29.0741C52.5292 29.8424 51.8889 30.4308 51.0532 30.8487L51.9476 32.6375ZM54.7131 30.0988C55.3832 28.9557 55.7004 27.642 55.7004 26.1931H53.7004C53.7004 27.3441 53.4509 28.2972 52.9877 29.0874L54.7131 30.0988ZM55.7004 26.1931C55.7004 24.7466 55.384 23.452 54.6966 22.3603L53.0042 23.4259C53.4501 24.1341 53.7004 25.0396 53.7004 26.1931H55.7004ZM54.7186 22.397C54.0833 21.2851 53.1667 20.4332 51.9976 19.8487L51.1032 21.6375C51.9341 22.053 52.5508 22.6344 52.9821 23.3892L54.7186 22.397ZM51.9976 19.8487C50.8313 19.2655 49.4883 18.9931 48.0004 18.9931V20.9931C49.2458 20.9931 50.2695 21.2207 51.1032 21.6375L51.9976 19.8487ZM48.0004 18.9931C47.297 18.9931 46.5674 19.0671 45.8133 19.2108L46.1875 21.1754C46.8334 21.0524 47.4371 20.9931 48.0004 20.9931V18.9931ZM45.8043 19.2125C45.0624 19.3609 44.3762 19.5871 43.7532 19.8987L44.6476 21.6875C45.0912 21.4657 45.605 21.292 46.1965 21.1737L45.8043 19.2125ZM45.103 20.3626L43.553 17.1126L41.7478 17.9736L43.2978 21.2236L45.103 20.3626ZM43.4021 18.2026L53.0521 7.20256L51.5487 5.88362L41.8987 16.8836L43.4021 18.2026ZM52.3004 5.54309H37.1004V7.54309H52.3004V5.54309ZM38.1004 6.54309V0.793088H36.1004V6.54309H38.1004ZM37.1004 1.79309H59.9504V-0.206912H37.1004V1.79309ZM58.9504 0.793088V6.14309H60.9504V0.793088H58.9504ZM59.1902 5.4934L49.4902 16.8434L51.0106 18.1428L60.7106 6.79278L59.1902 5.4934ZM51.2496 17.5323L51.3496 14.9823L49.3512 14.9039L49.2512 17.4539L51.2496 17.5323ZM50.3355 15.943C52.431 15.9743 54.2128 16.4261 55.7118 17.2656L56.689 15.5206C54.8547 14.4934 52.7365 13.9786 50.3653 13.9432L50.3355 15.943ZM55.7118 17.2656C57.2227 18.1117 58.3903 19.266 59.2322 20.7392L60.9686 19.747C59.9438 17.9535 58.5114 16.5412 56.689 15.5206L55.7118 17.2656ZM59.2322 20.7392C60.0655 22.1976 60.5004 23.9374 60.5004 25.9931H62.5004C62.5004 23.6488 62.002 21.5553 60.9686 19.747L59.2322 20.7392ZM60.5004 25.9931C60.5004 28.2229 59.9608 30.2089 58.8942 31.9764L60.6066 33.0098C61.8733 30.9106 62.5004 28.5633 62.5004 25.9931H60.5004ZM58.8982 31.9698C57.827 33.7144 56.3593 35.094 54.4746 36.1135L55.4262 37.8726C57.6082 36.6922 59.3405 35.0718 60.6026 33.0164L58.8982 31.9698ZM54.4746 36.1135C52.603 37.1261 50.4696 37.6431 48.0504 37.6431V39.6431C50.7645 39.6431 53.2312 39.0601 55.4262 37.8726L54.4746 36.1135Z" fill="#2437AC" mask="url(#path-1-outside-1_7_5160)"/>
</svg>
