<svg width="100" height="101" viewBox="0 0 100 101" fill="none" xmlns="http://www.w3.org/2000/svg">
<circle cx="50" cy="50.0586" r="50" fill="#00B8FF"/>
<path d="M34.6797 48.0977C34.6797 52.3516 38.125 55.8672 42.4492 55.8672C46.7383 55.8672 50.2187 52.3867 50.2187 48.0977C50.2187 43.8789 46.8086 40.3281 42.4492 40.3281C38.1953 40.3281 34.6797 43.8086 34.6797 48.0977ZM48.3555 50.875H46.3867C46.5273 50.1719 46.6328 49.4336 46.6328 48.6953H48.9531C48.918 49.4687 48.707 50.207 48.3555 50.875ZM35.9453 48.6953H38.2656C38.3008 49.4336 38.3711 50.1367 38.5117 50.875H36.543C36.1914 50.207 36.0156 49.4687 35.9453 48.6953ZM39.4961 48.6953H41.8516V50.875H39.7773C39.6016 50.1719 39.4961 49.4336 39.4961 48.6953ZM41.8516 52.1055V54.4609C41.2187 54.1445 40.5859 53.3008 40.1289 52.1055H41.8516ZM43.082 54.4961V52.1406H44.8047C44.3125 53.3008 43.7148 54.1445 43.082 54.4961ZM43.082 50.875V48.6953H45.4375C45.4023 49.4336 45.2969 50.1719 45.1562 50.875H43.082ZM48.9883 47.5H46.668C46.6328 46.7617 46.5625 46.0586 46.4219 45.3203H48.3906C48.707 45.9883 48.918 46.7266 48.9883 47.5ZM45.4375 47.5H43.082V45.3203H45.1562C45.2969 46.0234 45.4023 46.7617 45.4375 47.5ZM43.082 44.0898V41.7344C43.7148 42.0508 44.3477 42.8945 44.8047 44.0898H43.082ZM41.8516 41.6992V44.0547H40.1289C40.5859 42.8945 41.1836 42.0508 41.8516 41.6992ZM41.8516 45.3203V47.5H39.4961C39.5312 46.7617 39.6367 46.0234 39.7773 45.3203H41.8516ZM38.2656 47.5H35.9453C36.0156 46.7617 36.2266 46.0234 36.543 45.3203H38.5117C38.3711 46.0234 38.2656 46.7617 38.2656 47.5ZM37.2812 52.1055H38.8281C39.0391 52.7734 39.3203 53.4414 39.707 54.0391C38.7578 53.582 37.9492 52.9492 37.2812 52.1055ZM45.1914 54.0391C45.5781 53.4414 45.8594 52.8086 46.0703 52.1055H47.6172C46.9844 52.9492 46.1406 53.582 45.1914 54.0391ZM47.6172 44.0898H46.0703C45.8594 43.4219 45.5781 42.7891 45.1914 42.1562C46.1406 42.6133 46.9844 43.2461 47.6172 44.0898ZM39.707 42.1562C39.3203 42.7539 39.0391 43.3867 38.8281 44.0898H37.2812C37.9492 43.2461 38.7578 42.6133 39.707 42.1562Z" fill="white"/>
<path d="M53.875 57.6602H31.0586C30.707 57.6602 30.4609 57.9414 30.4609 58.2578V60.6484C30.4609 61 30.7422 61.2461 31.0586 61.2461H53.875C54.2266 61.2461 54.4727 60.9648 54.4727 60.6484V58.2578C54.4727 57.9414 54.1914 57.6602 53.875 57.6602ZM53.2422 60.0508H31.6562V58.8906H53.2422V60.0508Z" fill="white"/>
<path d="M49.0586 62.4414H35.875C35.5234 62.4414 35.2773 62.7227 35.2773 63.0391V65.4297C35.2773 65.7813 35.5586 66.0273 35.875 66.0273H49.0586C49.4102 66.0273 49.6562 65.7461 49.6562 65.4297V63.0391C49.6562 62.7227 49.375 62.4414 49.0586 62.4414ZM48.4258 64.8672H36.4727V63.707H48.4258V64.8672Z" fill="white"/>
<path d="M58.4805 42.332L60.625 41.4883V42.543L59.2891 44.1602C59.1836 44.2656 59.1484 44.4062 59.1484 44.5469V46.0586C59.1484 46.5156 59.6406 46.832 60.0625 46.5859L62.418 45.2852C63.3672 44.7578 63.9648 43.7383 63.9648 42.6484V34.9141C63.9648 34.5625 63.6836 34.3164 63.3672 34.3164H62.418C61.4336 34.3164 60.5898 35.125 60.5898 36.1445V38.043L58.5859 39.2734C57.9883 39.625 57.6367 40.293 57.6367 40.9961V41.7695C57.6367 42.1914 58.0937 42.5078 58.4805 42.332ZM59.2539 40.3281L61.5742 38.8867C61.75 38.7812 61.8555 38.5703 61.8555 38.3594V36.1094C61.8555 35.793 62.1016 35.5117 62.4531 35.5117H62.7695V42.6133C62.7695 43.2461 62.418 43.8437 61.8555 44.1602L60.4141 44.9687V44.7227L61.7148 43.1406C61.8203 43.0352 61.8555 42.8945 61.8555 42.7539V40.5742C61.8555 40.1523 61.4336 39.8359 61.0117 40.0117L58.9023 40.8555C58.9023 40.6445 59.043 40.4336 59.2539 40.3281Z" fill="white"/>
<path d="M72.7891 41.208C59.3945 27.8135 64.0351 32.4541 63.0156 31.4346C62.7695 31.1885 62.3828 31.1885 62.1367 31.4346L56.1602 37.4463C55.4219 36.3916 54.2266 35.7939 52.9609 35.7939H52.3984V31.8916C52.3984 31.5049 52.0469 31.2236 51.6602 31.2939L28.5273 35.7939C28.2461 35.8643 28.0352 36.1104 28.0352 36.3916V69.2627C28.0352 69.6143 28.3164 69.8604 28.6328 69.8604H56.2305C56.582 69.8604 56.8281 69.5791 56.8281 69.2627V58.0127L72.7539 42.0869C73.0351 41.8408 73.0351 41.4541 72.7891 41.208ZM56.7227 38.6064L62.5937 32.7354L69.7656 39.9072C69.0977 40.5752 58.3047 51.3682 56.8633 52.8096V39.6963C56.8633 39.3096 56.8281 38.958 56.7227 38.6064ZM51.168 32.6299V35.7588H35.0312L51.168 32.6299ZM29.2656 68.6299V36.9893H52.9609C54.4375 36.9893 55.6328 38.1846 55.6328 39.6611V68.5947H29.2656V68.6299ZM56.8633 56.2549V54.5674L70.6445 40.7861L71.4883 41.6299L56.8633 56.2549Z" fill="white"/>
</svg>
