<svg width="100" height="101" viewBox="0 0 100 101" fill="none" xmlns="http://www.w3.org/2000/svg">
<circle cx="50" cy="50.0586" r="50" fill="#00B8FF"/>
<path d="M72.3848 37.8125H39.7348C39.644 37.8124 39.5543 37.8325 39.4722 37.8712C39.3901 37.9099 39.3176 37.9664 39.2598 38.0364L37.8888 39.7014L36.5177 38.0364C36.4599 37.9664 36.3874 37.9099 36.3053 37.8712C36.2232 37.8325 36.1335 37.8124 36.0427 37.8125H28.6152C28.5344 37.8125 28.4544 37.8284 28.3797 37.8594C28.305 37.8903 28.2372 37.9357 28.1801 37.9928C28.1229 38.05 28.0776 38.1179 28.0467 38.1925C28.0158 38.2672 28 38.3473 28 38.4281V62.6859C28 62.8491 28.0648 63.0056 28.1802 63.1209C28.2956 63.2363 28.4521 63.3011 28.6152 63.3011H36.0406C36.1314 63.3012 36.2211 63.2811 36.3032 63.2424C36.3853 63.2037 36.4578 63.1473 36.5155 63.0772L37.8866 61.4122L39.2577 63.0772C39.3155 63.1473 39.388 63.2037 39.4701 63.2424C39.5522 63.2811 39.6419 63.3012 39.7327 63.3011H72.3848C72.4656 63.3012 72.5456 63.2853 72.6203 63.2544C72.6949 63.2235 72.7628 63.1782 72.8199 63.121C72.877 63.0639 72.9224 62.9961 72.9533 62.9214C72.9842 62.8467 73 62.7667 73 62.6859V38.4281C73.0001 38.3472 72.9842 38.2672 72.9534 38.1925C72.9225 38.1178 72.8772 38.0499 72.82 37.9927C72.7629 37.9355 72.695 37.8902 72.6203 37.8593C72.5457 37.8283 72.4656 37.8125 72.3848 37.8125ZM29.2305 39.043H35.7502L37.4127 41.0602C37.4724 41.1271 37.5456 41.1805 37.6273 41.2172C37.7091 41.2538 37.7977 41.2727 37.8873 41.2727C37.977 41.2727 38.0656 41.2538 38.1473 41.2172C38.2291 41.1805 38.3023 41.1271 38.362 41.0602L40.0245 39.043H71.7706V57.8104H29.2305V39.043ZM71.7695 62.0703H40.0252L38.3627 60.053C38.303 59.9862 38.2298 59.9327 38.148 59.8961C38.0663 59.8595 37.9777 59.8406 37.888 59.8406C37.7984 59.8406 37.7098 59.8595 37.628 59.8961C37.5463 59.9327 37.4731 59.9862 37.4134 60.053L35.7509 62.0703H29.2305V59.0409H71.7695V62.0703Z" fill="white"/>
<path d="M48.4609 40.6254H41.0612C40.9705 40.6253 40.8809 40.6453 40.7988 40.684C40.7167 40.7228 40.6443 40.7792 40.5866 40.8493L37.8877 44.1238L35.1887 40.8489C35.1311 40.7789 35.0587 40.7224 34.9766 40.6837C34.8945 40.645 34.8049 40.6249 34.7141 40.625H31.4277C31.3469 40.625 31.2668 40.6409 31.1921 40.6719C31.1174 40.7029 31.0496 40.7482 30.9924 40.8054C30.9353 40.8627 30.89 40.9306 30.8591 41.0053C30.8283 41.08 30.8124 41.1601 30.8125 41.2409V55.6135C30.8125 55.7767 30.8773 55.9332 30.9927 56.0486C31.1081 56.1639 31.2646 56.2288 31.4277 56.2288H48.4609C48.6241 56.2288 48.7806 56.1639 48.896 56.0486C49.0114 55.9332 49.0762 55.7767 49.0762 55.6135V41.2409C49.0762 41.1601 49.0603 41.0801 49.0294 41.0054C48.9985 40.9307 48.9532 40.8628 48.8961 40.8057C48.839 40.7485 48.7711 40.7032 48.6965 40.6722C48.6218 40.6413 48.5418 40.6254 48.4609 40.6254ZM47.8457 54.9983H32.043V41.8558H34.4237L37.412 45.4829C37.4717 45.5497 37.5449 45.6032 37.6266 45.6398C37.7084 45.6764 37.797 45.6954 37.8866 45.6954C37.9763 45.6954 38.0648 45.6764 38.1466 45.6398C38.2284 45.6032 38.3016 45.5497 38.3612 45.4829L41.3495 41.8558H47.8464L47.8457 54.9983Z" fill="white"/>
<path d="M68.8447 41.5583C68.3333 41.0482 67.6405 40.7617 66.9181 40.7617C66.1958 40.7617 65.503 41.0482 64.9916 41.5583L62.435 44.1148L58.1133 43.1143C57.6047 42.9949 57.074 43.0078 56.5718 43.1516C56.0697 43.2955 55.6127 43.5656 55.2445 43.9362L54.2833 44.8974C54.2124 44.9682 54.1599 45.0553 54.1303 45.151C54.1007 45.2467 54.095 45.3483 54.1136 45.4467C54.1322 45.5452 54.1746 45.6376 54.2371 45.7159C54.2996 45.7943 54.3803 45.8562 54.4721 45.8962L58.7742 47.7774L56.8515 49.6997L53.0898 50.0481C52.947 50.0608 52.8132 50.1229 52.7115 50.2239L50.8482 52.0872C50.7724 52.163 50.7177 52.2573 50.6896 52.3608C50.6614 52.4642 50.6608 52.5733 50.6877 52.677C50.7147 52.7808 50.7683 52.8757 50.8433 52.9524C50.9182 53.0291 51.0119 53.0848 51.1151 53.1141L55.678 54.4117C56.5061 54.647 57.382 54.6571 58.2153 54.4407C59.0486 54.2244 59.809 53.7896 60.4181 53.1813L70.0073 43.592C70.0645 43.535 70.1099 43.4672 70.1408 43.3926C70.1717 43.3179 70.1877 43.2379 70.1877 43.1572C70.1877 43.0764 70.1717 42.9964 70.1408 42.9218C70.1099 42.8471 70.0645 42.7794 70.0073 42.7223L68.8447 41.5583ZM59.548 52.3104C59.0941 52.7642 58.5272 53.0885 57.906 53.2499C57.2848 53.4113 56.6318 53.4039 56.0144 53.2284L52.4587 52.2176L53.4255 51.2508L57.1873 50.9024C57.3302 50.8893 57.4641 50.8265 57.5655 50.7249L60.2828 48.0077C60.3537 47.9369 60.4062 47.8498 60.4358 47.7541C60.4654 47.6583 60.4711 47.5568 60.4525 47.4584C60.4339 47.3599 60.3915 47.2675 60.329 47.1891C60.2665 47.1108 60.1858 47.0489 60.094 47.0089L55.7912 45.1294L56.1146 44.806C56.3357 44.5835 56.6102 44.4214 56.9118 44.3352C57.2134 44.249 57.532 44.2417 57.8373 44.3138L62.4885 45.3903C62.5902 45.4136 62.6961 45.4107 62.7965 45.382C62.8968 45.3533 62.9882 45.2997 63.0622 45.2261L65.86 42.4284C66.1405 42.1487 66.5204 41.9917 66.9166 41.9917C67.3127 41.9917 67.6927 42.1487 67.9732 42.4284L68.7009 43.1565L59.548 52.3104Z" fill="white"/>
<path d="M45.6484 52.1875H34.2402C34.0771 52.1875 33.9206 52.2523 33.8052 52.3677C33.6898 52.4831 33.625 52.6396 33.625 52.8027C33.625 52.9659 33.6898 53.1224 33.8052 53.2378C33.9206 53.3531 34.0771 53.418 34.2402 53.418H45.6484C45.8116 53.418 45.9681 53.3531 46.0835 53.2378C46.1988 53.1224 46.2637 52.9659 46.2637 52.8027C46.2637 52.6396 46.1988 52.4831 46.0835 52.3677C45.9681 52.2523 45.8116 52.1875 45.6484 52.1875Z" fill="white"/>
<path d="M45.6484 49.9336H34.2402C34.0771 49.9336 33.9206 49.9984 33.8052 50.1138C33.6898 50.2292 33.625 50.3857 33.625 50.5488C33.625 50.712 33.6898 50.8685 33.8052 50.9839C33.9206 51.0992 34.0771 51.1641 34.2402 51.1641H45.6484C45.8116 51.1641 45.9681 51.0992 46.0835 50.9839C46.1988 50.8685 46.2637 50.712 46.2637 50.5488C46.2637 50.3857 46.1988 50.2292 46.0835 50.1138C45.9681 49.9984 45.8116 49.9336 45.6484 49.9336Z" fill="white"/>
<path d="M45.6484 47.6797H34.2402C34.0771 47.6797 33.9206 47.7445 33.8052 47.8599C33.6898 47.9753 33.625 48.1318 33.625 48.2949C33.625 48.4581 33.6898 48.6146 33.8052 48.73C33.9206 48.8453 34.0771 48.9102 34.2402 48.9102H45.6484C45.8116 48.9102 45.9681 48.8453 46.0835 48.73C46.1988 48.6146 46.2637 48.4581 46.2637 48.2949C46.2637 48.1318 46.1988 47.9753 46.0835 47.8599C45.9681 47.7445 45.8116 47.6797 45.6484 47.6797Z" fill="white"/>
<path d="M40.7334 46.0449C40.7334 46.1257 40.7492 46.2058 40.7801 46.2804C40.811 46.3551 40.8564 46.4229 40.9135 46.4801C40.9706 46.5372 41.0385 46.5825 41.1131 46.6134C41.1878 46.6443 41.2678 46.6602 41.3486 46.6602H45.6486C45.8118 46.6602 45.9683 46.5953 46.0836 46.48C46.199 46.3646 46.2638 46.2081 46.2638 46.0449C46.2638 45.8818 46.199 45.7253 46.0836 45.6099C45.9683 45.4945 45.8118 45.4297 45.6486 45.4297H41.3486C41.2678 45.4296 41.1878 45.4455 41.1131 45.4764C41.0385 45.5073 40.9706 45.5526 40.9135 45.6098C40.8564 45.6669 40.811 45.7348 40.7801 45.8094C40.7492 45.8841 40.7334 45.9641 40.7334 46.0449Z" fill="white"/>
</svg>
