<svg width="52" height="10" viewBox="0 0 52 10" fill="none" xmlns="http://www.w3.org/2000/svg">
<g clip-path="url(#clip0_7_5938)">
<path d="M47.2095 2.18392C46.4096 2.40721 45.5874 2.5409 44.758 2.58254L38.0745 3.3067C36.5625 3.47941 35.0713 3.80212 33.6232 4.27004C32.834 4.53569 32.0748 4.88304 31.3577 5.30645C30.5815 5.82949 29.7739 6.3043 28.9394 6.72819C28.4366 6.96357 27.8868 7.0817 27.3317 7.07366C26.7204 7.03811 26.1425 6.78336 25.704 6.35615C24.8602 5.48583 24.6277 4.42948 24.0763 3.75183C23.8482 3.41906 23.505 3.18243 23.1129 3.08746C22.6926 2.99429 22.2543 3.02427 21.8506 3.17382C20.9442 3.50353 20.1839 4.14378 19.7047 4.9809C19.1267 5.83794 18.675 6.81455 18.0172 7.73138C17.3771 8.71653 16.4285 9.46181 15.3199 9.85071C14.738 10.0169 14.1213 10.0169 13.5394 9.85071C12.9881 9.6872 12.4799 9.40358 12.0512 9.02026C11.2848 8.3169 10.6875 7.44928 10.3039 6.48237C9.91861 5.59212 9.63957 4.72844 9.25423 3.97106C8.81236 2.93577 8.01001 2.09589 6.99598 1.6072C5.98195 1.11852 4.82509 1.01419 3.74 1.31359C3.16364 1.45888 2.62491 1.72545 2.15977 2.09549C1.69463 2.46554 1.3138 2.93057 1.04267 3.45951C0.609026 4.27582 0.40251 5.19359 0.444721 6.11697C0.461366 6.7086 0.587529 7.29202 0.816785 7.83768C0.969589 8.22302 1.07589 8.41568 1.04267 8.44226C1.00945 8.46883 0.849998 8.30274 0.624113 7.93733C0.297997 7.39235 0.0960956 6.78213 0.0328167 6.15018C-0.094422 5.13923 0.0716196 4.11301 0.511162 3.19375C0.798973 2.56839 1.21785 2.01221 1.73939 1.56287C2.26094 1.11354 2.87299 0.781564 3.53404 0.589437C4.3414 0.353785 5.19125 0.301882 6.02128 0.437537C6.85131 0.573193 7.64045 0.892971 8.33077 1.3734C9.08192 1.9347 9.6841 2.67147 10.0847 3.5193C10.5165 4.34976 10.8221 5.22672 11.2008 6.05717C11.535 6.88461 12.053 7.62523 12.7156 8.22302C13.0179 8.51364 13.3907 8.72041 13.7973 8.82294C14.204 8.92547 14.6303 8.92019 15.0342 8.80765C15.9058 8.48098 16.6489 7.88228 17.1536 7.10023C17.7316 6.29635 18.1833 5.31973 18.8145 4.37633C19.1355 3.88719 19.5172 3.44072 19.9505 3.04759C20.4071 2.65073 20.9377 2.34817 21.5118 2.15734C22.1043 1.95473 22.7412 1.92023 23.3521 2.05769C23.9719 2.21086 24.5177 2.57789 24.8934 3.0941C25.5977 4.0375 25.8368 5.0872 26.4082 5.61205C26.6675 5.87218 27.0118 6.0302 27.3782 6.05717C27.7818 6.06026 28.1811 5.97406 28.5475 5.80472C29.3497 5.40717 30.1284 4.96352 30.8794 4.47599C31.657 4.03026 32.4814 3.67155 33.3375 3.40636C34.8527 2.9532 36.4116 2.66147 37.9881 2.53604C40.8449 2.29687 43.1369 2.22378 44.7314 2.14405C45.5564 2.06569 46.3875 2.07907 47.2095 2.18392Z" fill="#2437AC"/>
<path d="M45.4762 6.30925C45.4231 6.16973 46.1406 5.77775 47.2235 5.12668C47.7683 4.80114 48.4127 4.40251 49.1036 3.93081C49.4491 3.69828 49.768 3.43918 50.1666 3.17343C50.3373 3.05735 50.4954 2.92376 50.6383 2.77482C50.7579 2.6575 50.8527 2.51745 50.9173 2.36291C50.9506 2.23668 50.9173 2.24332 50.9173 2.19681C50.821 2.10871 50.7009 2.05094 50.5719 2.03072L49.283 1.68526C48.4592 1.45937 47.7218 1.24013 47.1039 1.02089C45.8682 0.622272 45.1108 0.30337 45.1573 0.163853C45.2038 0.0243359 46.001 0.0774869 47.2833 0.290084C47.9476 0.396383 48.6784 0.542543 49.5155 0.715279L50.8443 1.0076C51.184 1.06943 51.4955 1.23681 51.7345 1.48595C51.8826 1.65386 51.9774 1.86197 52.0069 2.08387C52.0341 2.2878 52.0113 2.49529 51.9405 2.68845C51.8291 2.9894 51.6521 3.26175 51.4223 3.48569C51.235 3.67834 51.0254 3.84786 50.7978 3.9906C50.4124 4.26964 50.0205 4.51546 49.6484 4.74134C48.9845 5.13838 48.2916 5.48483 47.5756 5.77775C46.3399 6.29596 45.5294 6.44212 45.4762 6.30925Z" fill="#2437AC"/>
</g>
<defs>
<clipPath id="clip0_7_5938">
<rect width="52" height="9.86585" fill="white" transform="translate(0 0.105957)"/>
</clipPath>
</defs>
</svg>
