<svg width="100" height="101" viewBox="0 0 100 101" fill="none" xmlns="http://www.w3.org/2000/svg">
<circle cx="50" cy="50.0586" r="50" fill="#00B8FF"/>
<g clip-path="url(#clip0_7_5896)">
<path d="M64.1602 37.0039C65.8477 37.0039 67.2539 35.6328 67.2539 33.9102C67.2539 32.1875 65.8477 30.8516 64.1602 30.8516C62.4727 30.8516 61.0664 32.2227 61.0664 33.9453C61.0664 35.6328 62.4375 37.0039 64.1602 37.0039ZM64.1602 32.082C65.1797 32.082 66.0234 32.9258 66.0234 33.9453C66.0234 34.9648 65.1797 35.8086 64.1602 35.8086C63.1406 35.8086 62.2969 34.9648 62.2969 33.9453C62.2969 32.9258 63.1055 32.082 64.1602 32.082Z" fill="white"/>
<path d="M67.8517 44.1406C67.2892 42.9453 66.6212 41.7852 65.8478 40.7305C67.5353 39.6055 70.0314 37.3906 70.0314 33.9453C70.0314 30.6758 67.3946 28.0742 64.1603 28.0742C60.9259 28.0742 58.254 30.6758 58.254 33.9453V34.332C57.797 34.1211 57.3399 33.9102 56.8829 33.6992C43.6642 28.3906 29.0392 37.9883 28.9689 52.5781C28.9337 63.8281 38.004 72.9688 49.254 73.0039C60.504 73.0391 69.6446 63.9688 69.6798 52.7188C69.6798 52.6484 69.6798 52.6133 69.6798 52.543C69.6798 49.6602 69.047 46.7773 67.8517 44.1406ZM64.1603 29.2695C66.7267 29.2695 68.8009 31.3437 68.836 33.9453C68.836 37.6367 65.1798 39.8164 64.1603 40.3086C63.1759 39.7813 59.4845 37.6367 59.4845 33.9453C59.4845 31.3437 61.5587 29.2695 64.1603 29.2695ZM63.879 41.5742C64.0548 41.6445 64.2306 41.6445 64.3712 41.5742C64.4064 41.5742 64.547 41.5039 64.7579 41.3633C65.3204 42.1367 65.8126 42.9453 66.2696 43.7891H62.6134L60.1524 41.3281C60.0118 41.1875 59.8009 41.1172 59.5899 41.1523L52.3478 42.7695C52.0665 42.8398 51.8556 43.0859 51.8556 43.3672V44.8438C51.8556 45.1602 52.0665 45.4063 52.3829 45.4414L57.3751 46.2148L58.6056 48.6055C58.6759 48.7461 58.8165 48.8867 58.9923 48.9219L62.1564 49.8008V51.5938L60.2579 53.5625C60.1524 53.668 60.0821 53.8438 60.0821 53.9844V56.9727L56.6017 63.0547H54.6681V61.1211C54.6681 60.9453 54.5978 60.7695 54.4571 60.6641L51.7853 58.2383V55.4258C51.7853 55.1797 51.6095 54.9336 51.3985 54.8633L45.9142 52.8594V48.2891L49.5001 44.4219C49.7462 44.1758 49.711 43.7891 49.4649 43.543L49.4298 43.5078L46.1603 40.9766L48.8321 37.1797H54.3165C54.4923 37.1797 54.6329 37.1094 54.7384 37.0039L56.7774 34.9648C57.3399 35.2109 57.9376 35.4922 58.5001 35.8086C59.6251 39.6055 63.7032 41.4688 63.879 41.5742ZM36.9845 37.9883L38.5314 41.1875L37.3009 41.8203C37.2306 41.8555 37.1954 41.8906 37.1251 41.9258L34.2071 44.9141C34.0314 45.0898 33.9962 45.3359 34.0665 45.5469L34.4884 46.7422C34.0314 47.0234 33.5743 47.4102 33.2228 47.7969L30.7267 48.2188C31.6407 44.2109 33.8556 40.625 36.9845 37.9883ZM37.5821 58.0625C36.5978 57.5352 32.9064 55.3906 32.9064 51.6992C32.9415 49.1328 35.0509 47.0586 37.6173 47.0938C40.1485 47.1289 42.2228 49.168 42.2228 51.6992C42.2228 55.3906 38.5665 57.5703 37.5821 58.0625ZM30.2345 51.5586C30.2696 50.8555 30.3399 50.1875 30.4454 49.4844L32.2384 49.168C31.8868 49.9063 31.6759 50.7148 31.6759 51.5234H30.2345V51.5586ZM37.3009 64.6016V67.4844C32.8712 63.8984 30.2696 58.5195 30.1993 52.7891H31.7814C32.4493 57.1133 37.1251 59.2227 37.336 59.3281C37.5118 59.3984 37.6876 59.3984 37.8282 59.3281C38.3204 59.082 38.7774 58.8359 39.2345 58.5195L39.8673 59.1523V60.8398L39.0939 62C38.9181 62.2461 38.9884 62.5977 39.1993 62.8086L39.3751 62.9844L37.547 64.0742C37.4064 64.1797 37.3009 64.3555 37.3009 64.6016ZM49.3243 71.7383C45.4571 71.7383 41.6954 70.5781 38.5314 68.3984V64.9531L40.8165 63.582C41.0978 63.4063 41.2032 63.0195 41.0274 62.7383C40.9923 62.668 40.9571 62.6328 40.8868 62.5977L40.4649 62.2461L41.0274 61.4023C41.0978 61.2969 41.1329 61.1914 41.1329 61.0508V58.9414C41.1329 58.7656 41.0626 58.625 40.9571 58.5195L40.2892 57.8516C41.836 56.6211 43.5235 54.582 43.5235 51.7695C43.5235 48.5352 40.922 45.8984 37.6524 45.8984C36.9493 45.8984 36.2814 46.0039 35.6134 46.25L35.3673 45.5469L37.9337 42.9102L39.6212 42.0664C39.9376 41.9258 40.0431 41.5391 39.9024 41.2578L37.9689 37.2852C43.0314 33.5586 49.6056 32.5391 55.547 34.5781L54.0704 35.9844H48.5157C48.3048 35.9844 48.129 36.0898 48.0235 36.2305L44.8243 40.7656C44.6485 41.0469 44.6837 41.3984 44.9649 41.6094L48.1642 44.0703L44.8595 47.6211C44.754 47.7266 44.6837 47.8672 44.6837 48.043V53.2813C44.6837 53.5273 44.8595 53.7734 45.0704 53.8438L50.5548 55.8477V58.5195C50.5548 58.6953 50.6251 58.8711 50.7657 58.9766L53.4376 61.4023V63.6875C53.4376 64.0391 53.7189 64.2852 54.0353 64.2852H56.9532C57.1642 64.2852 57.3751 64.1797 57.4806 63.9688L61.2423 57.4297C61.3126 57.3242 61.3126 57.2188 61.3126 57.1133V54.1953L63.211 52.2969C63.3165 52.1914 63.3868 52.0156 63.3868 51.875V49.3789C63.3868 49.0977 63.211 48.8516 62.9298 48.7813L59.5548 47.832L58.3243 45.4063C58.2189 45.2305 58.0782 45.125 57.8673 45.0898L53.086 44.3516V43.8594L59.5196 42.418L61.9454 44.8438C62.0509 44.9492 62.2267 45.0195 62.3673 45.0195H66.8673C67.922 47.4102 68.4493 49.9766 68.4493 52.6133C68.4493 63.1602 59.8712 71.7031 49.3243 71.7383Z" fill="white"/>
<path d="M37.582 48.6055C35.8945 48.6055 34.4883 49.9766 34.4883 51.6992C34.4883 53.3867 35.8594 54.793 37.582 54.793C39.3047 54.793 40.6758 53.4219 40.6758 51.6992C40.6406 50.0117 39.2695 48.6055 37.582 48.6055ZM37.582 53.5625C36.5625 53.5625 35.7187 52.7188 35.7187 51.6992C35.7187 50.6797 36.5625 49.8359 37.582 49.8359C38.6016 49.8359 39.4453 50.6797 39.4453 51.6992C39.4453 52.7188 38.6016 53.5625 37.582 53.5625Z" fill="white"/>
</g>
<defs>
<clipPath id="clip0_7_5896">
<rect width="45" height="45" fill="white" transform="translate(27 28.0391)"/>
</clipPath>
</defs>
</svg>
